STARTFONT 2.1
COMMENT Icons at U+2600 and ahead. Powerline included. Other stuff also.
FONT -hacker-droopybdf-Medium-r-Normal--14-140-75-75-c-80-ISO10646-1
SIZE 14 75 75
FONTBOUNDINGBOX 8 14 0 -3
STARTPROPERTIES 22
FOUNDRY "hacker"
FAMILY_NAME "droopybdf"
WEIGHT_NAME "Medium"
SLANT "r"
SETWIDTH_NAME "Normal"
ADD_STYLE_NAME ""
PIXEL_SIZE 14
POINT_SIZE 140
RESOLUTION_X 75
RESOLUTION_Y 75
SPACING "c"
AVERAGE_WIDTH 80
CHARSET_REGISTRY "ISO10646"
CHARSET_ENCODING "1"
FONT_NAME "droopybdf"
FACE_NAME "droopybdf"
COPYRIGHT "Super free!"
CAP_HEIGHT 9
X_HEIGHT 7
_GBDFED_INFO "Edited with gbdfed 1.6."
FONT_ASCENT 11
FONT_DESCENT 3
ENDPROPERTIES
CHARS 731
STARTCHAR char0
ENCODING 0
SWIDTH 548 0
DWIDTH 8 0
BBX 8 14 0 -3
BITMAP
00
56
00
42
00
42
00
42
00
42
00
6A
00
00
ENDCHAR
STARTCHAR char1
ENCODING 1
SWIDTH 548 0
DWIDTH 8 0
BBX 8 14 0 -3
BITMAP
00
00
00
18
3C
7E
FF
FF
7E
3C
18
00
00
00
ENDCHAR
STARTCHAR char2
ENCODING 2
SWIDTH 548 0
DWIDTH 8 0
BBX 8 14 0 -3
BITMAP
AA
55
AA
55
AA
55
AA
55
AA
55
AA
55
AA
55
ENDCHAR
STARTCHAR char3
ENCODING 3
SWIDTH 548 0
DWIDTH 8 0
BBX 8 14 0 -3
BITMAP
00
90
90
F0
90
97
92
02
02
02
02
00
00
00
ENDCHAR
STARTCHAR char4
ENCODING 4
SWIDTH 548 0
DWIDTH 8 0
BBX 8 14 0 -3
BITMAP
00
30
40
40
70
46
48
08
0E
08
08
00
00
00
ENDCHAR
STARTCHAR char5
ENCODING 5
SWIDTH 548 0
DWIDTH 8 0
BBX 8 14 0 -3
BITMAP
00
60
90
80
90
66
05
05
06
05
05
00
00
00
ENDCHAR
STARTCHAR char6
ENCODING 6
SWIDTH 548 0
DWIDTH 8 0
BBX 8 14 0 -3
BITMAP
00
80
80
80
80
F7
04
04
07
04
04
00
00
00
ENDCHAR
STARTCHAR char7
ENCODING 7
SWIDTH 548 0
DWIDTH 8 0
BBX 8 14 0 -3
BITMAP
00
00
38
44
44
44
38
00
00
00
00
00
00
00
ENDCHAR
STARTCHAR char8
ENCODING 8
SWIDTH 548 0
DWIDTH 8 0
BBX 8 14 0 -3
BITMAP
00
00
00
00
08
08
7E
08
08
00
7E
00
00
00
ENDCHAR
STARTCHAR char9
ENCODING 9
SWIDTH 548 0
DWIDTH 8 0
BBX 8 14 0 -3
BITMAP
00
60
50
50
50
54
54
04
04
04
03
00
00
00
ENDCHAR
STARTCHAR char10
ENCODING 10
SWIDTH 548 0
DWIDTH 8 0
BBX 8 14 0 -3
BITMAP
00
48
48
48
50
6E
44
04
04
04
00
00
00
00
ENDCHAR
STARTCHAR char11
ENCODING 11
SWIDTH 548 0
DWIDTH 8 0
BBX 8 14 0 -3
BITMAP
08
08
08
08
08
08
F8
00
00
00
00
00
00
00
ENDCHAR
STARTCHAR char12
ENCODING 12
SWIDTH 548 0
DWIDTH 8 0
BBX 8 14 0 -3
BITMAP
00
00
00
00
00
00
F8
08
08
08
08
08
08
08
ENDCHAR
STARTCHAR char13
ENCODING 13
SWIDTH 548 0
DWIDTH 8 0
BBX 8 14 0 -3
BITMAP
00
00
00
00
00
00
0F
08
08
08
08
08
08
08
ENDCHAR
STARTCHAR char14
ENCODING 14
SWIDTH 548 0
DWIDTH 8 0
BBX 8 14 0 -3
BITMAP
08
08
08
08
08
08
0F
00
00
00
00
00
00
00
ENDCHAR
STARTCHAR char15
ENCODING 15
SWIDTH 548 0
DWIDTH 8 0
BBX 8 14 0 -3
BITMAP
08
08
08
08
08
08
FF
08
08
08
08
08
08
08
ENDCHAR
STARTCHAR char16
ENCODING 16
SWIDTH 548 0
DWIDTH 8 0
BBX 8 14 0 -3
BITMAP
FF
00
00
00
00
00
00
00
00
00
00
00
00
00
ENDCHAR
STARTCHAR char17
ENCODING 17
SWIDTH 548 0
DWIDTH 8 0
BBX 8 14 0 -3
BITMAP
00
00
00
FF
00
00
00
00
00
00
00
00
00
00
ENDCHAR
STARTCHAR char18
ENCODING 18
SWIDTH 548 0
DWIDTH 8 0
BBX 8 14 0 -3
BITMAP
00
00
00
00
00
00
FF
00
00
00
00
00
00
00
ENDCHAR
STARTCHAR char19
ENCODING 19
SWIDTH 548 0
DWIDTH 8 0
BBX 8 14 0 -3
BITMAP
00
00
00
00
00
00
00
00
00
00
FF
00
00
00
ENDCHAR
STARTCHAR char20
ENCODING 20
SWIDTH 548 0
DWIDTH 8 0
BBX 8 14 0 -3
BITMAP
00
00
00
00
00
00
00
00
00
00
00
00
00
00
ENDCHAR
STARTCHAR char21
ENCODING 21
SWIDTH 548 0
DWIDTH 8 0
BBX 8 14 0 -3
BITMAP
08
08
08
08
08
08
0F
08
08
08
08
08
08
08
ENDCHAR
STARTCHAR char22
ENCODING 22
SWIDTH 548 0
DWIDTH 8 0
BBX 8 14 0 -3
BITMAP
08
08
08
08
08
08
F8
08
08
08
08
08
08
08
ENDCHAR
STARTCHAR char23
ENCODING 23
SWIDTH 548 0
DWIDTH 8 0
BBX 8 14 0 -3
BITMAP
08
08
08
08
08
08
FF
00
00
00
00
00
00
00
ENDCHAR
STARTCHAR char24
ENCODING 24
SWIDTH 548 0
DWIDTH 8 0
BBX 8 14 0 -3
BITMAP
00
00
00
00
00
00
FF
08
08
08
08
08
08
08
ENDCHAR
STARTCHAR char25
ENCODING 25
SWIDTH 548 0
DWIDTH 8 0
BBX 8 14 0 -3
BITMAP
08
08
08
08
08
08
08
08
08
08
08
08
08
08
ENDCHAR
STARTCHAR char26
ENCODING 26
SWIDTH 548 0
DWIDTH 8 0
BBX 8 14 0 -3
BITMAP
00
00
00
00
06
18
60
18
06
00
7E
00
00
00
ENDCHAR
STARTCHAR char27
ENCODING 27
SWIDTH 548 0
DWIDTH 8 0
BBX 8 14 0 -3
BITMAP
00
00
00
00
60
18
06
18
60
00
7E
00
00
00
ENDCHAR
STARTCHAR char28
ENCODING 28
SWIDTH 548 0
DWIDTH 8 0
BBX 8 14 0 -3
BITMAP
00
00
00
00
7E
24
24
24
24
24
24
00
00
00
ENDCHAR
STARTCHAR char29
ENCODING 29
SWIDTH 548 0
DWIDTH 8 0
BBX 8 14 0 -3
BITMAP
00
00
02
04
7E
08
18
10
7E
20
40
00
00
00
ENDCHAR
STARTCHAR char30
ENCODING 30
SWIDTH 548 0
DWIDTH 8 0
BBX 8 14 0 -3
BITMAP
00
00
0C
12
10
10
38
10
10
12
7C
00
00
00
ENDCHAR
STARTCHAR char31
ENCODING 31
SWIDTH 548 0
DWIDTH 8 0
BBX 8 14 0 -3
BITMAP
00
00
00
00
00
00
3C
00
00
00
00
00
00
00
ENDCHAR
STARTCHAR char32
ENCODING 32
SWIDTH 548 0
DWIDTH 8 0
BBX 8 14 0 -3
BITMAP
00
00
00
00
00
00
00
00
00
00
00
00
00
00
ENDCHAR
STARTCHAR char33
ENCODING 33
SWIDTH 548 0
DWIDTH 8 0
BBX 8 14 0 -3
BITMAP
00
08
08
08
08
08
08
00
00
08
08
00
00
00
ENDCHAR
STARTCHAR char34
ENCODING 34
SWIDTH 548 0
DWIDTH 8 0
BBX 8 14 0 -3
BITMAP
00
24
24
24
24
24
00
00
00
00
00
00
00
00
ENDCHAR
STARTCHAR char35
ENCODING 35
SWIDTH 548 0
DWIDTH 8 0
BBX 8 14 0 -3
BITMAP
00
00
24
24
7E
24
24
24
7E
24
24
00
00
00
ENDCHAR
STARTCHAR char36
ENCODING 36
SWIDTH 548 0
DWIDTH 8 0
BBX 8 14 0 -3
BITMAP
00
08
3C
4A
48
48
3C
12
12
52
3C
10
00
00
ENDCHAR
STARTCHAR char37
ENCODING 37
SWIDTH 548 0
DWIDTH 8 0
BBX 8 14 0 -3
BITMAP
00
00
22
54
54
28
08
10
14
2A
2A
44
00
00
ENDCHAR
STARTCHAR char38
ENCODING 38
SWIDTH 548 0
DWIDTH 8 0
BBX 8 14 0 -3
BITMAP
00
00
3C
44
44
28
51
4A
44
4C
33
00
00
00
ENDCHAR
STARTCHAR char39
ENCODING 39
SWIDTH 548 0
DWIDTH 8 0
BBX 8 14 0 -3
BITMAP
00
08
08
08
08
08
00
00
00
00
00
00
00
00
ENDCHAR
STARTCHAR char40
ENCODING 40
SWIDTH 548 0
DWIDTH 8 0
BBX 8 14 0 -3
BITMAP
00
0E
18
30
30
30
30
30
30
30
30
18
0E
00
ENDCHAR
STARTCHAR char41
ENCODING 41
SWIDTH 548 0
DWIDTH 8 0
BBX 8 14 0 -3
BITMAP
00
70
18
0C
0C
0C
0C
0C
0C
0C
0C
18
70
00
ENDCHAR
STARTCHAR char42
ENCODING 42
SWIDTH 548 0
DWIDTH 8 0
BBX 8 14 0 -3
BITMAP
00
00
00
24
24
18
76
18
24
24
00
00
00
00
ENDCHAR
STARTCHAR char43
ENCODING 43
SWIDTH 548 0
DWIDTH 8 0
BBX 8 14 0 -3
BITMAP
00
00
00
08
08
08
7E
08
08
08
00
00
00
00
ENDCHAR
STARTCHAR char44
ENCODING 44
SWIDTH 548 0
DWIDTH 8 0
BBX 8 14 0 -3
BITMAP
00
00
00
00
00
00
00
00
00
18
18
08
10
00
ENDCHAR
STARTCHAR char45
ENCODING 45
SWIDTH 548 0
DWIDTH 8 0
BBX 8 14 0 -3
BITMAP
00
00
00
00
00
00
7E
00
00
00
00
00
00
00
ENDCHAR
STARTCHAR char46
ENCODING 46
SWIDTH 548 0
DWIDTH 8 0
BBX 8 14 0 -3
BITMAP
00
00
00
00
00
00
00
00
00
18
18
00
00
00
ENDCHAR
STARTCHAR char47
ENCODING 47
SWIDTH 548 0
DWIDTH 8 0
BBX 8 14 0 -3
BITMAP
00
02
02
04
04
08
08
10
10
20
20
40
40
00
ENDCHAR
STARTCHAR char48
ENCODING 48
SWIDTH 548 0
DWIDTH 8 0
BBX 8 14 0 -3
BITMAP
00
00
3E
42
42
4A
4A
4A
42
42
3C
00
00
00
ENDCHAR
STARTCHAR char49
ENCODING 49
SWIDTH 548 0
DWIDTH 8 0
BBX 8 14 0 -3
BITMAP
00
00
08
18
28
08
08
08
08
08
38
00
00
00
ENDCHAR
STARTCHAR char50
ENCODING 50
SWIDTH 548 0
DWIDTH 8 0
BBX 8 14 0 -3
BITMAP
00
00
7C
02
02
02
3E
40
40
40
7E
00
00
00
ENDCHAR
STARTCHAR char51
ENCODING 51
SWIDTH 548 0
DWIDTH 8 0
BBX 8 14 0 -3
BITMAP
00
00
7C
02
02
02
3E
02
02
02
7C
00
00
00
ENDCHAR
STARTCHAR char52
ENCODING 52
SWIDTH 548 0
DWIDTH 8 0
BBX 8 14 0 -3
BITMAP
00
00
42
42
42
42
3E
02
02
02
02
00
00
00
ENDCHAR
STARTCHAR char53
ENCODING 53
SWIDTH 548 0
DWIDTH 8 0
BBX 8 14 0 -3
BITMAP
00
00
7E
40
40
7C
02
02
02
42
3C
00
00
00
ENDCHAR
STARTCHAR char54
ENCODING 54
SWIDTH 548 0
DWIDTH 8 0
BBX 8 14 0 -3
BITMAP
00
00
3C
42
40
40
7C
42
42
42
3C
00
00
00
ENDCHAR
STARTCHAR char55
ENCODING 55
SWIDTH 548 0
DWIDTH 8 0
BBX 8 14 0 -3
BITMAP
00
00
7C
02
04
08
10
10
10
10
10
00
00
00
ENDCHAR
STARTCHAR char56
ENCODING 56
SWIDTH 548 0
DWIDTH 8 0
BBX 8 14 0 -3
BITMAP
00
00
3C
42
42
42
7E
42
42
42
3C
00
00
00
ENDCHAR
STARTCHAR char57
ENCODING 57
SWIDTH 548 0
DWIDTH 8 0
BBX 8 14 0 -3
BITMAP
00
00
3C
42
42
42
7E
02
02
42
3C
00
00
00
ENDCHAR
STARTCHAR char58
ENCODING 58
SWIDTH 548 0
DWIDTH 8 0
BBX 8 14 0 -3
BITMAP
00
00
00
18
18
00
00
00
00
18
18
00
00
00
ENDCHAR
STARTCHAR char59
ENCODING 59
SWIDTH 548 0
DWIDTH 8 0
BBX 8 14 0 -3
BITMAP
00
00
00
18
18
00
00
00
00
18
18
08
10
00
ENDCHAR
STARTCHAR char60
ENCODING 60
SWIDTH 548 0
DWIDTH 8 0
BBX 8 14 0 -3
BITMAP
00
00
04
08
10
20
40
20
10
08
04
00
00
00
ENDCHAR
STARTCHAR char61
ENCODING 61
SWIDTH 548 0
DWIDTH 8 0
BBX 8 14 0 -3
BITMAP
00
00
00
00
7E
00
00
00
7E
00
00
00
00
00
ENDCHAR
STARTCHAR char62
ENCODING 62
SWIDTH 548 0
DWIDTH 8 0
BBX 8 14 0 -3
BITMAP
00
00
20
10
08
04
02
04
08
10
20
00
00
00
ENDCHAR
STARTCHAR char63
ENCODING 63
SWIDTH 548 0
DWIDTH 8 0
BBX 8 14 0 -3
BITMAP
00
00
3E
42
02
04
08
08
00
08
08
00
00
00
ENDCHAR
STARTCHAR char64
ENCODING 64
SWIDTH 548 0
DWIDTH 8 0
BBX 8 14 0 -3
BITMAP
00
00
7C
42
4E
52
52
52
5C
40
3E
00
00
00
ENDCHAR
STARTCHAR char65
ENCODING 65
SWIDTH 548 0
DWIDTH 8 0
BBX 8 14 0 -3
BITMAP
00
00
7C
42
42
42
7E
42
42
42
42
00
00
00
ENDCHAR
STARTCHAR char66
ENCODING 66
SWIDTH 548 0
DWIDTH 8 0
BBX 8 14 0 -3
BITMAP
00
00
78
44
44
44
7C
42
42
42
7C
00
00
00
ENDCHAR
STARTCHAR char67
ENCODING 67
SWIDTH 548 0
DWIDTH 8 0
BBX 8 14 0 -3
BITMAP
00
00
3C
42
40
40
40
40
40
42
7C
00
00
00
ENDCHAR
STARTCHAR char68
ENCODING 68
SWIDTH 548 0
DWIDTH 8 0
BBX 8 14 0 -3
BITMAP
00
00
78
44
42
42
42
42
42
42
7C
00
00
00
ENDCHAR
STARTCHAR char69
ENCODING 69
SWIDTH 548 0
DWIDTH 8 0
BBX 8 14 0 -3
BITMAP
00
00
3E
40
40
40
7C
40
40
40
7E
00
00
00
ENDCHAR
STARTCHAR char70
ENCODING 70
SWIDTH 548 0
DWIDTH 8 0
BBX 8 14 0 -3
BITMAP
00
00
7E
40
40
40
7C
40
40
40
40
00
00
00
ENDCHAR
STARTCHAR char71
ENCODING 71
SWIDTH 548 0
DWIDTH 8 0
BBX 8 14 0 -3
BITMAP
00
00
3C
40
40
40
4E
42
42
42
7C
00
00
00
ENDCHAR
STARTCHAR char72
ENCODING 72
SWIDTH 548 0
DWIDTH 8 0
BBX 8 14 0 -3
BITMAP
00
00
42
42
42
42
7E
42
42
42
42
00
00
00
ENDCHAR
STARTCHAR char73
ENCODING 73
SWIDTH 548 0
DWIDTH 8 0
BBX 8 14 0 -3
BITMAP
00
00
1C
08
08
08
08
08
08
08
1C
00
00
00
ENDCHAR
STARTCHAR char74
ENCODING 74
SWIDTH 548 0
DWIDTH 8 0
BBX 8 14 0 -3
BITMAP
00
00
06
02
02
02
02
42
42
42
3C
00
00
00
ENDCHAR
STARTCHAR char75
ENCODING 75
SWIDTH 548 0
DWIDTH 8 0
BBX 8 14 0 -3
BITMAP
00
00
42
44
48
50
78
44
42
42
42
00
00
00
ENDCHAR
STARTCHAR char76
ENCODING 76
SWIDTH 548 0
DWIDTH 8 0
BBX 8 14 0 -3
BITMAP
00
00
40
40
40
40
40
40
40
42
7C
00
00
00
ENDCHAR
STARTCHAR char77
ENCODING 77
SWIDTH 548 0
DWIDTH 8 0
BBX 8 14 0 -3
BITMAP
00
00
7E
49
49
49
49
49
41
41
41
00
00
00
ENDCHAR
STARTCHAR char78
ENCODING 78
SWIDTH 548 0
DWIDTH 8 0
BBX 8 14 0 -3
BITMAP
00
00
62
52
4A
46
42
42
42
42
42
00
00
00
ENDCHAR
STARTCHAR char79
ENCODING 79
SWIDTH 548 0
DWIDTH 8 0
BBX 8 14 0 -3
BITMAP
00
00
3E
42
42
42
42
42
42
42
3C
00
00
00
ENDCHAR
STARTCHAR char80
ENCODING 80
SWIDTH 548 0
DWIDTH 8 0
BBX 8 14 0 -3
BITMAP
00
00
7C
42
42
42
7C
40
40
40
40
00
00
00
ENDCHAR
STARTCHAR char81
ENCODING 81
SWIDTH 548 0
DWIDTH 8 0
BBX 8 14 0 -3
BITMAP
00
00
3C
42
42
42
42
42
4A
46
3E
02
02
00
ENDCHAR
STARTCHAR char82
ENCODING 82
SWIDTH 548 0
DWIDTH 8 0
BBX 8 14 0 -3
BITMAP
00
00
7C
42
42
42
7C
44
42
42
42
00
00
00
ENDCHAR
STARTCHAR char83
ENCODING 83
SWIDTH 548 0
DWIDTH 8 0
BBX 8 14 0 -3
BITMAP
00
00
3C
42
40
40
3C
02
02
42
3C
00
00
00
ENDCHAR
STARTCHAR char84
ENCODING 84
SWIDTH 548 0
DWIDTH 8 0
BBX 8 14 0 -3
BITMAP
00
00
7F
08
08
08
08
08
08
08
08
00
00
00
ENDCHAR
STARTCHAR char85
ENCODING 85
SWIDTH 548 0
DWIDTH 8 0
BBX 8 14 0 -3
BITMAP
00
00
42
42
42
42
42
42
42
42
3E
00
00
00
ENDCHAR
STARTCHAR char86
ENCODING 86
SWIDTH 548 0
DWIDTH 8 0
BBX 8 14 0 -3
BITMAP
00
00
42
42
42
42
42
44
48
50
20
00
00
00
ENDCHAR
STARTCHAR char87
ENCODING 87
SWIDTH 548 0
DWIDTH 8 0
BBX 8 14 0 -3
BITMAP
00
00
41
41
41
49
49
49
49
49
3F
00
00
00
ENDCHAR
STARTCHAR char88
ENCODING 88
SWIDTH 548 0
DWIDTH 8 0
BBX 8 14 0 -3
BITMAP
00
00
42
42
42
24
18
24
42
42
42
00
00
00
ENDCHAR
STARTCHAR char89
ENCODING 89
SWIDTH 548 0
DWIDTH 8 0
BBX 8 14 0 -3
BITMAP
00
00
42
42
42
42
3E
02
02
42
3E
00
00
00
ENDCHAR
STARTCHAR char90
ENCODING 90
SWIDTH 548 0
DWIDTH 8 0
BBX 8 14 0 -3
BITMAP
00
00
7E
02
04
08
10
20
40
40
3E
00
00
00
ENDCHAR
STARTCHAR char91
ENCODING 91
SWIDTH 548 0
DWIDTH 8 0
BBX 8 14 0 -3
BITMAP
00
3E
30
30
30
30
30
30
30
30
30
30
3E
00
ENDCHAR
STARTCHAR char92
ENCODING 92
SWIDTH 548 0
DWIDTH 8 0
BBX 8 14 0 -3
BITMAP
00
40
40
20
20
10
10
08
08
04
04
02
02
00
ENDCHAR
STARTCHAR char93
ENCODING 93
SWIDTH 548 0
DWIDTH 8 0
BBX 8 14 0 -3
BITMAP
00
7C
0C
0C
0C
0C
0C
0C
0C
0C
0C
0C
7C
00
ENDCHAR
STARTCHAR char94
ENCODING 94
SWIDTH 548 0
DWIDTH 8 0
BBX 8 14 0 -3
BITMAP
00
3C
42
42
42
00
00
00
00
00
00
00
00
00
ENDCHAR
STARTCHAR char95
ENCODING 95
SWIDTH 548 0
DWIDTH 8 0
BBX 8 14 0 -3
BITMAP
00
00
00
00
00
00
00
00
00
00
00
7E
00
00
ENDCHAR
STARTCHAR char96
ENCODING 96
SWIDTH 548 0
DWIDTH 8 0
BBX 8 14 0 -3
BITMAP
00
30
08
08
00
00
00
00
00
00
00
00
00
00
ENDCHAR
STARTCHAR char97
ENCODING 97
SWIDTH 548 0
DWIDTH 8 0
BBX 8 14 0 -3
BITMAP
00
00
00
00
3C
02
3E
42
42
42
3E
00
00
00
ENDCHAR
STARTCHAR char98
ENCODING 98
SWIDTH 548 0
DWIDTH 8 0
BBX 8 14 0 -3
BITMAP
00
40
40
40
7C
42
42
42
42
42
3C
00
00
00
ENDCHAR
STARTCHAR char99
ENCODING 99
SWIDTH 548 0
DWIDTH 8 0
BBX 8 14 0 -3
BITMAP
00
00
00
00
3C
42
40
40
40
42
7C
00
00
00
ENDCHAR
STARTCHAR char100
ENCODING 100
SWIDTH 548 0
DWIDTH 8 0
BBX 8 14 0 -3
BITMAP
00
02
02
02
3A
46
42
42
42
42
3E
00
00
00
ENDCHAR
STARTCHAR char101
ENCODING 101
SWIDTH 548 0
DWIDTH 8 0
BBX 8 14 0 -3
BITMAP
00
00
00
00
3C
42
42
7E
40
42
7C
00
00
00
ENDCHAR
STARTCHAR char102
ENCODING 102
SWIDTH 548 0
DWIDTH 8 0
BBX 8 14 0 -3
BITMAP
00
1C
20
20
20
3C
20
20
20
20
20
00
00
00
ENDCHAR
STARTCHAR char103
ENCODING 103
SWIDTH 548 0
DWIDTH 8 0
BBX 8 14 0 -3
BITMAP
00
00
00
00
3E
42
42
42
42
42
3E
02
02
3C
ENDCHAR
STARTCHAR char104
ENCODING 104
SWIDTH 548 0
DWIDTH 8 0
BBX 8 14 0 -3
BITMAP
00
40
40
40
7C
42
42
42
42
42
42
00
00
00
ENDCHAR
STARTCHAR char105
ENCODING 105
SWIDTH 548 0
DWIDTH 8 0
BBX 8 14 0 -3
BITMAP
00
08
08
00
38
08
08
08
08
08
06
00
00
00
ENDCHAR
STARTCHAR char106
ENCODING 106
SWIDTH 548 0
DWIDTH 8 0
BBX 8 14 0 -3
BITMAP
00
04
04
00
1C
04
04
04
04
04
04
04
04
78
ENDCHAR
STARTCHAR char107
ENCODING 107
SWIDTH 548 0
DWIDTH 8 0
BBX 8 14 0 -3
BITMAP
00
40
40
40
42
44
78
44
42
42
42
00
00
00
ENDCHAR
STARTCHAR char108
ENCODING 108
SWIDTH 548 0
DWIDTH 8 0
BBX 8 14 0 -3
BITMAP
00
30
10
10
10
10
10
10
10
10
0E
00
00
00
ENDCHAR
STARTCHAR char109
ENCODING 109
SWIDTH 548 0
DWIDTH 8 0
BBX 8 14 0 -3
BITMAP
00
00
00
00
7E
49
49
49
49
41
41
00
00
00
ENDCHAR
STARTCHAR char110
ENCODING 110
SWIDTH 548 0
DWIDTH 8 0
BBX 8 14 0 -3
BITMAP
00
00
00
00
7C
42
42
42
42
42
42
00
00
00
ENDCHAR
STARTCHAR char111
ENCODING 111
SWIDTH 548 0
DWIDTH 8 0
BBX 8 14 0 -3
BITMAP
00
00
00
00
3C
42
42
42
42
42
3C
00
00
00
ENDCHAR
STARTCHAR char112
ENCODING 112
SWIDTH 548 0
DWIDTH 8 0
BBX 8 14 0 -3
BITMAP
00
00
00
00
7C
42
42
42
42
42
7C
40
40
40
ENDCHAR
STARTCHAR char113
ENCODING 113
SWIDTH 548 0
DWIDTH 8 0
BBX 8 14 0 -3
BITMAP
00
00
00
00
3E
42
42
42
42
42
3E
02
02
02
ENDCHAR
STARTCHAR char114
ENCODING 114
SWIDTH 548 0
DWIDTH 8 0
BBX 8 14 0 -3
BITMAP
00
00
00
00
7C
42
40
40
40
40
40
00
00
00
ENDCHAR
STARTCHAR char115
ENCODING 115
SWIDTH 548 0
DWIDTH 8 0
BBX 8 14 0 -3
BITMAP
00
00
00
00
3E
40
40
7E
02
02
7C
00
00
00
ENDCHAR
STARTCHAR char116
ENCODING 116
SWIDTH 548 0
DWIDTH 8 0
BBX 8 14 0 -3
BITMAP
00
20
20
20
20
3C
20
20
20
20
1E
00
00
00
ENDCHAR
STARTCHAR char117
ENCODING 117
SWIDTH 548 0
DWIDTH 8 0
BBX 8 14 0 -3
BITMAP
00
00
00
00
42
42
42
42
42
42
3E
00
00
00
ENDCHAR
STARTCHAR char118
ENCODING 118
SWIDTH 548 0
DWIDTH 8 0
BBX 8 14 0 -3
BITMAP
00
00
00
00
42
42
42
44
48
50
20
00
00
00
ENDCHAR
STARTCHAR char119
ENCODING 119
SWIDTH 548 0
DWIDTH 8 0
BBX 8 14 0 -3
BITMAP
00
00
00
00
41
41
49
49
49
49
3F
00
00
00
ENDCHAR
STARTCHAR char120
ENCODING 120
SWIDTH 548 0
DWIDTH 8 0
BBX 8 14 0 -3
BITMAP
00
00
00
00
42
42
24
18
24
42
42
00
00
00
ENDCHAR
STARTCHAR char121
ENCODING 121
SWIDTH 548 0
DWIDTH 8 0
BBX 8 14 0 -3
BITMAP
00
00
00
00
42
42
42
42
42
42
3E
02
02
7C
ENDCHAR
STARTCHAR char122
ENCODING 122
SWIDTH 548 0
DWIDTH 8 0
BBX 8 14 0 -3
BITMAP
00
00
00
00
7E
04
08
10
20
40
3E
00
00
00
ENDCHAR
STARTCHAR char123
ENCODING 123
SWIDTH 548 0
DWIDTH 8 0
BBX 8 14 0 -3
BITMAP
00
1E
30
30
30
30
60
60
30
30
30
30
1E
00
ENDCHAR
STARTCHAR char124
ENCODING 124
SWIDTH 548 0
DWIDTH 8 0
BBX 8 14 0 -3
BITMAP
08
08
08
08
08
08
08
08
08
08
08
08
08
08
ENDCHAR
STARTCHAR char125
ENCODING 125
SWIDTH 548 0
DWIDTH 8 0
BBX 8 14 0 -3
BITMAP
00
78
0C
0C
0C
0C
06
06
0C
0C
0C
0C
78
00
ENDCHAR
STARTCHAR char126
ENCODING 126
SWIDTH 548 0
DWIDTH 8 0
BBX 8 14 0 -3
BITMAP
00
00
00
00
00
32
5A
4C
00
00
00
00
00
00
ENDCHAR
STARTCHAR char127
ENCODING 127
SWIDTH 548 0
DWIDTH 8 0
BBX 8 14 0 -3
BITMAP
00
00
00
00
00
00
00
00
00
00
00
00
00
00
ENDCHAR
STARTCHAR char139
ENCODING 139
SWIDTH 548 0
DWIDTH 8 0
BBX 8 14 0 -3
BITMAP
00
00
00
04
08
10
20
10
08
04
00
00
00
00
ENDCHAR
STARTCHAR char149
ENCODING 149
SWIDTH 548 0
DWIDTH 8 0
BBX 8 14 0 -3
BITMAP
00
00
00
00
18
3C
7E
7E
3C
18
00
00
00
00
ENDCHAR
STARTCHAR char150
ENCODING 150
SWIDTH 548 0
DWIDTH 8 0
BBX 8 14 0 -3
BITMAP
00
00
00
00
00
00
3C
00
00
00
00
00
00
00
ENDCHAR
STARTCHAR char151
ENCODING 151
SWIDTH 548 0
DWIDTH 8 0
BBX 8 14 0 -3
BITMAP
00
00
00
00
00
00
7E
00
00
00
00
00
00
00
ENDCHAR
STARTCHAR char152
ENCODING 152
SWIDTH 548 0
DWIDTH 8 0
BBX 8 14 0 -3
BITMAP
00
00
32
5A
4C
00
00
00
00
00
00
00
00
00
ENDCHAR
STARTCHAR char153
ENCODING 153
SWIDTH 548 0
DWIDTH 8 0
BBX 8 14 0 -3
BITMAP
00
00
EF
55
55
55
00
00
00
00
00
00
00
00
ENDCHAR
STARTCHAR char155
ENCODING 155
SWIDTH 548 0
DWIDTH 8 0
BBX 8 14 0 -3
BITMAP
00
00
00
20
10
08
04
08
10
20
00
00
00
00
ENDCHAR
STARTCHAR char161
ENCODING 161
SWIDTH 548 0
DWIDTH 8 0
BBX 8 14 0 -3
BITMAP
00
00
08
08
00
08
08
08
08
08
08
00
00
00
ENDCHAR
STARTCHAR char162
ENCODING 162
SWIDTH 548 0
DWIDTH 8 0
BBX 8 14 0 -3
BITMAP
00
00
00
10
38
54
50
50
54
78
10
00
00
00
ENDCHAR
STARTCHAR char163
ENCODING 163
SWIDTH 548 0
DWIDTH 8 0
BBX 8 14 0 -3
BITMAP
00
00
00
0C
12
10
38
10
10
12
7C
00
00
00
ENDCHAR
STARTCHAR char164
ENCODING 164
SWIDTH 548 0
DWIDTH 8 0
BBX 8 14 0 -3
BITMAP
00
00
00
00
00
42
3C
24
24
3C
42
00
00
00
ENDCHAR
STARTCHAR char165
ENCODING 165
SWIDTH 548 0
DWIDTH 8 0
BBX 8 14 0 -3
BITMAP
00
00
44
44
28
10
7C
10
7C
10
10
00
00
00
ENDCHAR
STARTCHAR char166
ENCODING 166
SWIDTH 548 0
DWIDTH 8 0
BBX 8 14 0 -3
BITMAP
00
08
08
08
08
08
00
00
08
08
08
08
08
00
ENDCHAR
STARTCHAR char167
ENCODING 167
SWIDTH 548 0
DWIDTH 8 0
BBX 8 14 0 -3
BITMAP
00
00
1E
20
38
24
24
24
1C
04
78
00
00
00
ENDCHAR
STARTCHAR char168
ENCODING 168
SWIDTH 548 0
DWIDTH 8 0
BBX 8 14 0 -3
BITMAP
00
00
24
24
24
24
00
00
00
00
00
00
00
00
ENDCHAR
STARTCHAR char169
ENCODING 169
SWIDTH 548 0
DWIDTH 8 0
BBX 8 14 0 -3
BITMAP
00
00
3E
42
5A
52
52
52
5A
42
3C
00
00
00
ENDCHAR
STARTCHAR char170
ENCODING 170
SWIDTH 548 0
DWIDTH 8 0
BBX 8 14 0 -3
BITMAP
00
38
04
3C
44
3C
00
7C
00
00
00
00
00
00
ENDCHAR
STARTCHAR char139
ENCODING 171
SWIDTH 548 0
DWIDTH 8 0
BBX 8 14 0 -3
BITMAP
00
00
00
0A
14
28
50
28
14
0A
00
00
00
00
ENDCHAR
STARTCHAR char172
ENCODING 172
SWIDTH 548 0
DWIDTH 8 0
BBX 8 14 0 -3
BITMAP
00
00
00
00
00
00
7E
02
02
02
00
00
00
00
ENDCHAR
STARTCHAR char173
ENCODING 173
SWIDTH 548 0
DWIDTH 8 0
BBX 8 14 0 -3
BITMAP
00
00
00
00
00
00
7E
00
00
00
00
00
00
00
ENDCHAR
STARTCHAR char174
ENCODING 174
SWIDTH 548 0
DWIDTH 8 0
BBX 8 14 0 -3
BITMAP
00
00
3E
42
5A
56
56
5A
56
42
3C
00
00
00
ENDCHAR
STARTCHAR char175
ENCODING 175
SWIDTH 548 0
DWIDTH 8 0
BBX 8 14 0 -3
BITMAP
00
00
7E
00
00
00
00
00
00
00
00
00
00
00
ENDCHAR
STARTCHAR char7
ENCODING 176
SWIDTH 548 0
DWIDTH 8 0
BBX 8 14 0 -3
BITMAP
00
00
38
44
44
44
38
00
00
00
00
00
00
00
ENDCHAR
STARTCHAR char8
ENCODING 177
SWIDTH 548 0
DWIDTH 8 0
BBX 8 14 0 -3
BITMAP
00
00
00
00
08
08
7E
08
08
00
7E
00
00
00
ENDCHAR
STARTCHAR char178
ENCODING 178
SWIDTH 548 0
DWIDTH 8 0
BBX 8 14 0 -3
BITMAP
00
70
08
08
30
40
40
78
00
00
00
00
00
00
ENDCHAR
STARTCHAR char179
ENCODING 179
SWIDTH 548 0
DWIDTH 8 0
BBX 8 14 0 -3
BITMAP
00
70
08
08
38
08
08
70
00
00
00
00
00
00
ENDCHAR
STARTCHAR char96
ENCODING 180
SWIDTH 548 0
DWIDTH 8 0
BBX 8 14 0 -3
BITMAP
00
0C
10
10
00
00
00
00
00
00
00
00
00
00
ENDCHAR
STARTCHAR char181
ENCODING 181
SWIDTH 548 0
DWIDTH 8 0
BBX 8 14 0 -3
BITMAP
00
00
00
00
22
22
22
22
22
32
2C
20
40
00
ENDCHAR
STARTCHAR char182
ENCODING 182
SWIDTH 548 0
DWIDTH 8 0
BBX 8 14 0 -3
BITMAP
00
00
00
1C
32
52
52
32
12
12
12
00
00
00
ENDCHAR
STARTCHAR char183
ENCODING 183
SWIDTH 548 0
DWIDTH 8 0
BBX 8 14 0 -3
BITMAP
00
00
00
00
00
00
18
00
00
00
00
00
00
00
ENDCHAR
STARTCHAR char184
ENCODING 184
SWIDTH 548 0
DWIDTH 8 0
BBX 8 14 0 -3
BITMAP
00
00
00
00
00
00
00
00
00
18
18
00
00
00
ENDCHAR
STARTCHAR char178
ENCODING 185
SWIDTH 548 0
DWIDTH 8 0
BBX 8 14 0 -3
BITMAP
00
10
30
50
10
10
10
70
00
00
00
00
00
00
ENDCHAR
STARTCHAR char186
ENCODING 186
SWIDTH 548 0
DWIDTH 8 0
BBX 8 14 0 -3
BITMAP
00
38
44
44
44
38
00
7C
00
00
00
00
00
00
ENDCHAR
STARTCHAR char139
ENCODING 187
SWIDTH 548 0
DWIDTH 8 0
BBX 8 14 0 -3
BITMAP
00
00
00
50
28
14
0A
14
28
50
00
00
00
00
ENDCHAR
STARTCHAR char188
ENCODING 188
SWIDTH 548 0
DWIDTH 8 0
BBX 8 14 0 -3
BITMAP
00
20
60
20
24
6C
14
1C
04
00
00
00
00
00
ENDCHAR
STARTCHAR char188
ENCODING 189
SWIDTH 548 0
DWIDTH 8 0
BBX 8 14 0 -3
BITMAP
00
20
60
20
2C
74
08
10
1C
00
00
00
00
00
ENDCHAR
STARTCHAR char188
ENCODING 190
SWIDTH 548 0
DWIDTH 8 0
BBX 8 14 0 -3
BITMAP
00
60
10
70
14
6C
14
1C
04
00
00
00
00
00
ENDCHAR
STARTCHAR char63
ENCODING 191
SWIDTH 548 0
DWIDTH 8 0
BBX 8 14 0 -3
BITMAP
00
00
08
08
00
08
08
04
02
42
3E
00
00
00
ENDCHAR
STARTCHAR char192
ENCODING 192
SWIDTH 548 0
DWIDTH 8 0
BBX 8 14 0 -3
BITMAP
00
20
10
08
18
24
24
3C
42
42
42
00
00
00
ENDCHAR
STARTCHAR char192
ENCODING 193
SWIDTH 548 0
DWIDTH 8 0
BBX 8 14 0 -3
BITMAP
00
04
08
10
18
24
24
3C
42
42
42
00
00
00
ENDCHAR
STARTCHAR char192
ENCODING 194
SWIDTH 548 0
DWIDTH 8 0
BBX 8 14 0 -3
BITMAP
00
18
24
00
18
24
24
3C
42
42
42
00
00
00
ENDCHAR
STARTCHAR char192
ENCODING 195
SWIDTH 548 0
DWIDTH 8 0
BBX 8 14 0 -3
BITMAP
00
14
28
00
18
24
24
3C
42
42
42
00
00
00
ENDCHAR
STARTCHAR char192
ENCODING 196
SWIDTH 548 0
DWIDTH 8 0
BBX 8 14 0 -3
BITMAP
00
24
24
00
18
24
24
3C
42
42
42
00
00
00
ENDCHAR
STARTCHAR char192
ENCODING 197
SWIDTH 548 0
DWIDTH 8 0
BBX 8 14 0 -3
BITMAP
00
18
24
18
18
24
24
3C
42
42
42
00
00
00
ENDCHAR
STARTCHAR char198
ENCODING 198
SWIDTH 548 0
DWIDTH 8 0
BBX 8 14 0 -3
BITMAP
00
00
00
00
0F
18
28
4E
78
48
4F
00
00
00
ENDCHAR
STARTCHAR char99
ENCODING 199
SWIDTH 548 0
DWIDTH 8 0
BBX 8 14 0 -3
BITMAP
00
00
00
00
3C
42
40
40
40
42
7C
10
20
00
ENDCHAR
STARTCHAR char200
ENCODING 200
SWIDTH 548 0
DWIDTH 8 0
BBX 8 14 0 -3
BITMAP
00
20
10
08
3E
40
40
78
40
40
7E
00
00
00
ENDCHAR
STARTCHAR char200
ENCODING 201
SWIDTH 548 0
DWIDTH 8 0
BBX 8 14 0 -3
BITMAP
00
04
08
10
3E
40
40
78
40
40
7E
00
00
00
ENDCHAR
STARTCHAR char200
ENCODING 202
SWIDTH 548 0
DWIDTH 8 0
BBX 8 14 0 -3
BITMAP
00
18
24
00
3E
40
40
78
40
40
7E
00
00
00
ENDCHAR
STARTCHAR char200
ENCODING 203
SWIDTH 548 0
DWIDTH 8 0
BBX 8 14 0 -3
BITMAP
00
24
24
00
3E
40
40
78
40
40
7E
00
00
00
ENDCHAR
STARTCHAR char204
ENCODING 204
SWIDTH 548 0
DWIDTH 8 0
BBX 8 14 0 -3
BITMAP
00
20
10
08
1C
08
08
08
08
08
1C
00
00
00
ENDCHAR
STARTCHAR char205
ENCODING 205
SWIDTH 548 0
DWIDTH 8 0
BBX 8 14 0 -3
BITMAP
00
02
04
08
1C
08
08
08
08
08
1C
00
00
00
ENDCHAR
STARTCHAR char206
ENCODING 206
SWIDTH 548 0
DWIDTH 8 0
BBX 8 14 0 -3
BITMAP
00
08
14
00
1C
08
08
08
08
08
1C
00
00
00
ENDCHAR
STARTCHAR char207
ENCODING 207
SWIDTH 548 0
DWIDTH 8 0
BBX 8 14 0 -3
BITMAP
00
00
14
00
1C
08
08
08
08
08
1C
00
00
00
ENDCHAR
STARTCHAR char208
ENCODING 208
SWIDTH 548 0
DWIDTH 8 0
BBX 8 14 0 -3
BITMAP
00
00
00
00
30
28
24
74
24
28
30
00
00
00
ENDCHAR
STARTCHAR char209
ENCODING 209
SWIDTH 548 0
DWIDTH 8 0
BBX 8 14 0 -3
BITMAP
00
14
28
00
64
54
4C
44
44
44
44
00
00
00
ENDCHAR
STARTCHAR char210
ENCODING 210
SWIDTH 548 0
DWIDTH 8 0
BBX 8 14 0 -3
BITMAP
00
20
10
08
3C
42
42
42
42
42
3C
00
00
00
ENDCHAR
STARTCHAR char210
ENCODING 211
SWIDTH 548 0
DWIDTH 8 0
BBX 8 14 0 -3
BITMAP
00
04
08
10
3C
42
42
42
42
42
3C
00
00
00
ENDCHAR
STARTCHAR char210
ENCODING 212
SWIDTH 548 0
DWIDTH 8 0
BBX 8 14 0 -3
BITMAP
00
18
24
00
3C
42
42
42
42
42
3C
00
00
00
ENDCHAR
STARTCHAR char210
ENCODING 213
SWIDTH 548 0
DWIDTH 8 0
BBX 8 14 0 -3
BITMAP
00
14
28
00
3C
42
42
42
42
42
3C
00
00
00
ENDCHAR
STARTCHAR char210
ENCODING 214
SWIDTH 548 0
DWIDTH 8 0
BBX 8 14 0 -3
BITMAP
00
24
24
00
3C
42
42
42
42
42
3C
00
00
00
ENDCHAR
STARTCHAR char215
ENCODING 215
SWIDTH 548 0
DWIDTH 8 0
BBX 8 14 0 -3
BITMAP
00
00
00
00
42
24
18
18
24
42
42
00
00
00
ENDCHAR
STARTCHAR char210
ENCODING 216
SWIDTH 548 0
DWIDTH 8 0
BBX 8 14 0 -3
BITMAP
00
00
00
02
3C
46
4A
52
52
62
3C
40
00
00
ENDCHAR
STARTCHAR char217
ENCODING 217
SWIDTH 548 0
DWIDTH 8 0
BBX 8 14 0 -3
BITMAP
00
20
10
08
42
42
42
42
42
42
3E
00
00
00
ENDCHAR
STARTCHAR char217
ENCODING 218
SWIDTH 548 0
DWIDTH 8 0
BBX 8 14 0 -3
BITMAP
00
04
08
10
42
42
42
42
42
42
3E
00
00
00
ENDCHAR
STARTCHAR char217
ENCODING 219
SWIDTH 548 0
DWIDTH 8 0
BBX 8 14 0 -3
BITMAP
00
18
24
00
42
42
42
42
42
42
3E
00
00
00
ENDCHAR
STARTCHAR char217
ENCODING 220
SWIDTH 548 0
DWIDTH 8 0
BBX 8 14 0 -3
BITMAP
00
24
24
00
42
42
42
42
42
42
3E
00
00
00
ENDCHAR
STARTCHAR char221
ENCODING 221
SWIDTH 548 0
DWIDTH 8 0
BBX 8 14 0 -3
BITMAP
04
08
10
42
42
42
3E
02
02
42
3E
00
00
00
ENDCHAR
STARTCHAR char222
ENCODING 222
SWIDTH 548 0
DWIDTH 8 0
BBX 8 14 0 -3
BITMAP
00
00
00
00
40
40
7C
42
42
42
7C
40
40
00
ENDCHAR
STARTCHAR char223
ENCODING 223
SWIDTH 548 0
DWIDTH 8 0
BBX 8 14 0 -3
BITMAP
00
00
00
00
38
44
44
58
44
42
52
4C
40
00
ENDCHAR
STARTCHAR char97
ENCODING 224
SWIDTH 548 0
DWIDTH 8 0
BBX 8 14 0 -3
BITMAP
00
20
10
08
3C
02
3E
42
42
42
3E
00
00
00
ENDCHAR
STARTCHAR char97
ENCODING 225
SWIDTH 548 0
DWIDTH 8 0
BBX 8 14 0 -3
BITMAP
00
04
08
10
3C
02
3E
42
42
42
3E
00
00
00
ENDCHAR
STARTCHAR char97
ENCODING 226
SWIDTH 548 0
DWIDTH 8 0
BBX 8 14 0 -3
BITMAP
00
18
24
00
3C
02
3E
42
42
42
3E
00
00
00
ENDCHAR
STARTCHAR char97
ENCODING 227
SWIDTH 548 0
DWIDTH 8 0
BBX 8 14 0 -3
BITMAP
00
14
28
00
3C
02
3E
42
42
42
3E
00
00
00
ENDCHAR
STARTCHAR char97
ENCODING 228
SWIDTH 548 0
DWIDTH 8 0
BBX 8 14 0 -3
BITMAP
00
24
24
00
3C
02
3E
42
42
42
3E
00
00
00
ENDCHAR
STARTCHAR char97
ENCODING 229
SWIDTH 548 0
DWIDTH 8 0
BBX 8 14 0 -3
BITMAP
00
18
24
18
3C
02
3E
42
42
42
3E
00
00
00
ENDCHAR
STARTCHAR char230
ENCODING 230
SWIDTH 548 0
DWIDTH 8 0
BBX 8 14 0 -3
BITMAP
00
00
00
00
7C
12
72
9E
90
92
7C
00
00
00
ENDCHAR
STARTCHAR char231
ENCODING 231
SWIDTH 548 0
DWIDTH 8 0
BBX 8 14 0 -3
BITMAP
00
00
00
00
3C
42
40
40
40
42
7C
10
20
00
ENDCHAR
STARTCHAR char101
ENCODING 232
SWIDTH 548 0
DWIDTH 8 0
BBX 8 14 0 -3
BITMAP
00
20
10
08
3C
42
42
7E
40
42
7C
00
00
00
ENDCHAR
STARTCHAR char101
ENCODING 233
SWIDTH 548 0
DWIDTH 8 0
BBX 8 14 0 -3
BITMAP
00
04
08
10
3C
42
42
7E
40
42
7C
00
00
00
ENDCHAR
STARTCHAR char101
ENCODING 234
SWIDTH 548 0
DWIDTH 8 0
BBX 8 14 0 -3
BITMAP
00
18
24
00
3C
42
42
7E
40
42
7C
00
00
00
ENDCHAR
STARTCHAR char101
ENCODING 235
SWIDTH 548 0
DWIDTH 8 0
BBX 8 14 0 -3
BITMAP
00
24
24
00
3C
42
42
7E
40
42
7C
00
00
00
ENDCHAR
STARTCHAR char105
ENCODING 236
SWIDTH 548 0
DWIDTH 8 0
BBX 8 14 0 -3
BITMAP
20
10
08
00
38
08
08
08
08
08
06
00
00
00
ENDCHAR
STARTCHAR char105
ENCODING 237
SWIDTH 548 0
DWIDTH 8 0
BBX 8 14 0 -3
BITMAP
02
04
08
00
38
08
08
08
08
08
06
00
00
00
ENDCHAR
STARTCHAR char105
ENCODING 238
SWIDTH 548 0
DWIDTH 8 0
BBX 8 14 0 -3
BITMAP
00
18
24
00
38
08
08
08
08
08
06
00
00
00
ENDCHAR
STARTCHAR char105
ENCODING 239
SWIDTH 548 0
DWIDTH 8 0
BBX 8 14 0 -3
BITMAP
00
24
24
00
38
08
08
08
08
08
06
00
00
00
ENDCHAR
STARTCHAR char210
ENCODING 240
SWIDTH 548 0
DWIDTH 8 0
BBX 8 14 0 -3
BITMAP
00
00
24
38
00
3E
42
42
42
42
3C
00
00
00
ENDCHAR
STARTCHAR char241
ENCODING 241
SWIDTH 548 0
DWIDTH 8 0
BBX 8 14 0 -3
BITMAP
00
00
14
28
00
7C
42
42
42
42
42
00
00
00
ENDCHAR
STARTCHAR char210
ENCODING 242
SWIDTH 548 0
DWIDTH 8 0
BBX 8 14 0 -3
BITMAP
00
20
10
08
00
3E
42
42
42
42
3C
00
00
00
ENDCHAR
STARTCHAR char210
ENCODING 243
SWIDTH 548 0
DWIDTH 8 0
BBX 8 14 0 -3
BITMAP
00
04
08
10
00
3E
42
42
42
42
3C
00
00
00
ENDCHAR
STARTCHAR char210
ENCODING 244
SWIDTH 548 0
DWIDTH 8 0
BBX 8 14 0 -3
BITMAP
00
00
18
24
00
3E
42
42
42
42
3C
00
00
00
ENDCHAR
STARTCHAR char210
ENCODING 245
SWIDTH 548 0
DWIDTH 8 0
BBX 8 14 0 -3
BITMAP
00
00
14
28
00
3E
42
42
42
42
3C
00
00
00
ENDCHAR
STARTCHAR char210
ENCODING 246
SWIDTH 548 0
DWIDTH 8 0
BBX 8 14 0 -3
BITMAP
00
00
24
24
00
3E
42
42
42
42
3C
00
00
00
ENDCHAR
STARTCHAR char247
ENCODING 247
SWIDTH 548 0
DWIDTH 8 0
BBX 8 14 0 -3
BITMAP
00
00
00
00
18
00
7E
00
18
00
00
00
00
00
ENDCHAR
STARTCHAR char210
ENCODING 248
SWIDTH 548 0
DWIDTH 8 0
BBX 8 14 0 -3
BITMAP
00
00
00
02
04
3C
4A
52
52
62
3C
40
00
00
ENDCHAR
STARTCHAR char249
ENCODING 249
SWIDTH 548 0
DWIDTH 8 0
BBX 8 14 0 -3
BITMAP
00
20
10
08
00
42
42
42
42
42
3E
00
00
00
ENDCHAR
STARTCHAR char249
ENCODING 250
SWIDTH 548 0
DWIDTH 8 0
BBX 8 14 0 -3
BITMAP
00
04
08
10
00
42
42
42
42
42
3E
00
00
00
ENDCHAR
STARTCHAR char249
ENCODING 251
SWIDTH 548 0
DWIDTH 8 0
BBX 8 14 0 -3
BITMAP
00
00
18
24
00
42
42
42
42
42
3E
00
00
00
ENDCHAR
STARTCHAR char249
ENCODING 252
SWIDTH 548 0
DWIDTH 8 0
BBX 8 14 0 -3
BITMAP
00
00
24
24
00
42
42
42
42
42
3E
00
00
00
ENDCHAR
STARTCHAR char221
ENCODING 253
SWIDTH 548 0
DWIDTH 8 0
BBX 8 14 0 -3
BITMAP
00
04
08
10
42
42
42
42
3E
02
42
3E
00
00
ENDCHAR
STARTCHAR char222
ENCODING 254
SWIDTH 548 0
DWIDTH 8 0
BBX 8 14 0 -3
BITMAP
00
00
00
40
7C
42
42
42
42
42
7C
40
40
00
ENDCHAR
STARTCHAR char221
ENCODING 255
SWIDTH 548 0
DWIDTH 8 0
BBX 8 14 0 -3
BITMAP
00
24
24
00
42
42
42
42
3E
02
42
3E
00
00
ENDCHAR
STARTCHAR char582
ENCODING 582
SWIDTH 548 0
DWIDTH 8 0
BBX 8 14 0 -3
BITMAP
00
00
08
3E
28
28
3C
28
28
3E
08
00
00
00
ENDCHAR
STARTCHAR char4054
ENCODING 4054
SWIDTH 548 0
DWIDTH 8 0
BBX 8 14 0 -3
BITMAP
00
00
00
00
79
09
09
7F
48
48
4F
00
00
00
ENDCHAR
STARTCHAR char7472
ENCODING 7472
SWIDTH 548 0
DWIDTH 8 0
BBX 8 14 0 -3
BITMAP
00
78
44
44
44
44
44
78
00
00
00
00
00
00
ENDCHAR
STARTCHAR char7476
ENCODING 7476
SWIDTH 548 0
DWIDTH 8 0
BBX 8 14 0 -3
BITMAP
00
44
44
44
7C
44
44
44
00
00
00
00
00
00
ENDCHAR
STARTCHAR char8208
ENCODING 8208
SWIDTH 548 0
DWIDTH 8 0
BBX 8 14 0 -3
BITMAP
00
00
00
00
00
00
3C
00
00
00
00
00
00
00
ENDCHAR
STARTCHAR char8209
ENCODING 8209
SWIDTH 548 0
DWIDTH 8 0
BBX 8 14 0 -3
BITMAP
00
00
00
00
00
00
3C
00
00
00
00
00
00
00
ENDCHAR
STARTCHAR char8210
ENCODING 8210
SWIDTH 548 0
DWIDTH 8 0
BBX 8 14 0 -3
BITMAP
00
00
00
00
00
00
7E
00
00
00
00
00
00
00
ENDCHAR
STARTCHAR char8211
ENCODING 8211
SWIDTH 548 0
DWIDTH 8 0
BBX 8 14 0 -3
BITMAP
00
00
00
00
00
00
7E
00
00
00
00
00
00
00
ENDCHAR
STARTCHAR char8212
ENCODING 8212
SWIDTH 548 0
DWIDTH 8 0
BBX 8 14 0 -3
BITMAP
00
00
00
00
00
00
FF
00
00
00
00
00
00
00
ENDCHAR
STARTCHAR char8213
ENCODING 8213
SWIDTH 548 0
DWIDTH 8 0
BBX 8 14 0 -3
BITMAP
00
00
00
00
00
00
FF
00
00
00
00
00
00
00
ENDCHAR
STARTCHAR char8227
ENCODING 8227
SWIDTH 548 0
DWIDTH 8 0
BBX 8 14 0 -3
BITMAP
00
00
60
10
48
44
02
44
48
10
60
00
00
00
ENDCHAR
STARTCHAR char8230
ENCODING 8230
SWIDTH 548 0
DWIDTH 8 0
BBX 8 14 0 -3
BITMAP
00
00
00
00
00
00
00
00
00
00
DB
00
00
00
ENDCHAR
STARTCHAR char8231
ENCODING 8231
SWIDTH 548 0
DWIDTH 8 0
BBX 8 14 0 -3
BITMAP
00
00
00
00
00
00
18
00
00
00
00
00
00
00
ENDCHAR
STARTCHAR char8249
ENCODING 8249
SWIDTH 548 0
DWIDTH 8 0
BBX 8 14 0 -3
BITMAP
00
00
04
08
12
24
48
24
12
08
04
00
00
00
ENDCHAR
STARTCHAR char8250
ENCODING 8250
SWIDTH 548 0
DWIDTH 8 0
BBX 8 14 0 -3
BITMAP
00
00
20
10
48
24
12
24
48
10
20
00
00
00
ENDCHAR
STARTCHAR char8304
ENCODING 8304
SWIDTH 548 0
DWIDTH 8 0
BBX 8 14 0 -3
BITMAP
00
38
44
44
44
44
44
38
00
00
00
00
00
00
ENDCHAR
STARTCHAR char8305
ENCODING 8305
SWIDTH 548 0
DWIDTH 8 0
BBX 8 14 0 -3
BITMAP
10
10
00
70
10
10
10
0C
00
00
00
00
00
00
ENDCHAR
STARTCHAR char8308
ENCODING 8308
SWIDTH 548 0
DWIDTH 8 0
BBX 8 14 0 -3
BITMAP
00
48
48
48
38
08
08
08
00
00
00
00
00
00
ENDCHAR
STARTCHAR char8309
ENCODING 8309
SWIDTH 548 0
DWIDTH 8 0
BBX 8 14 0 -3
BITMAP
00
78
40
70
08
08
48
30
00
00
00
00
00
00
ENDCHAR
STARTCHAR char8310
ENCODING 8310
SWIDTH 548 0
DWIDTH 8 0
BBX 8 14 0 -3
BITMAP
00
38
40
40
70
48
48
30
00
00
00
00
00
00
ENDCHAR
STARTCHAR char8311
ENCODING 8311
SWIDTH 548 0
DWIDTH 8 0
BBX 8 14 0 -3
BITMAP
00
70
08
10
20
20
20
20
00
00
00
00
00
00
ENDCHAR
STARTCHAR char8312
ENCODING 8312
SWIDTH 548 0
DWIDTH 8 0
BBX 8 14 0 -3
BITMAP
00
30
48
48
78
48
48
30
00
00
00
00
00
00
ENDCHAR
STARTCHAR char8313
ENCODING 8313
SWIDTH 548 0
DWIDTH 8 0
BBX 8 14 0 -3
BITMAP
00
30
48
48
78
08
48
30
00
00
00
00
00
00
ENDCHAR
STARTCHAR char8364
ENCODING 8364
SWIDTH 548 0
DWIDTH 8 0
BBX 8 14 0 -3
BITMAP
00
00
0E
12
20
FC
20
FC
20
12
0E
00
00
00
ENDCHAR
STARTCHAR char8482
ENCODING 8482
SWIDTH 548 0
DWIDTH 8 0
BBX 8 14 0 -3
BITMAP
00
EF
55
55
55
55
51
00
00
00
00
00
00
00
ENDCHAR
STARTCHAR char8592
ENCODING 8592
SWIDTH 548 0
DWIDTH 8 0
BBX 8 14 0 -3
BITMAP
00
00
00
10
20
40
FF
40
20
10
00
00
00
00
ENDCHAR
STARTCHAR char8592
ENCODING 8593
SWIDTH 548 0
DWIDTH 8 0
BBX 8 14 0 -3
BITMAP
00
00
00
08
1C
2A
49
08
08
08
08
00
00
00
ENDCHAR
STARTCHAR char8592
ENCODING 8594
SWIDTH 548 0
DWIDTH 8 0
BBX 8 14 0 -3
BITMAP
00
00
00
08
04
02
FF
02
04
08
00
00
00
00
ENDCHAR
STARTCHAR char8592
ENCODING 8595
SWIDTH 548 0
DWIDTH 8 0
BBX 8 14 0 -3
BITMAP
00
00
00
08
08
08
08
49
2A
1C
08
00
00
00
ENDCHAR
STARTCHAR char8592
ENCODING 8596
SWIDTH 548 0
DWIDTH 8 0
BBX 8 14 0 -3
BITMAP
00
00
00
10
24
42
FF
42
24
08
00
00
00
00
ENDCHAR
STARTCHAR char8592
ENCODING 8597
SWIDTH 548 0
DWIDTH 8 0
BBX 8 14 0 -3
BITMAP
00
00
00
08
1C
2A
48
09
2A
1C
08
00
00
00
ENDCHAR
STARTCHAR char8598
ENCODING 8598
SWIDTH 548 0
DWIDTH 8 0
BBX 8 14 0 -3
BITMAP
00
00
00
00
7C
60
50
48
44
02
00
00
00
00
ENDCHAR
STARTCHAR char8598
ENCODING 8599
SWIDTH 548 0
DWIDTH 8 0
BBX 8 14 0 -3
BITMAP
00
00
00
00
3E
06
0A
12
22
40
00
00
00
00
ENDCHAR
STARTCHAR char8598
ENCODING 8600
SWIDTH 548 0
DWIDTH 8 0
BBX 8 14 0 -3
BITMAP
00
00
00
00
40
22
12
0A
06
3E
00
00
00
00
ENDCHAR
STARTCHAR char8598
ENCODING 8601
SWIDTH 548 0
DWIDTH 8 0
BBX 8 14 0 -3
BITMAP
00
00
00
00
02
44
48
50
60
7C
00
00
00
00
ENDCHAR
STARTCHAR char8592
ENCODING 8610
SWIDTH 548 0
DWIDTH 8 0
BBX 8 14 0 -3
BITMAP
00
00
00
11
22
44
F8
44
22
11
00
00
00
00
ENDCHAR
STARTCHAR char8592
ENCODING 8611
SWIDTH 548 0
DWIDTH 8 0
BBX 8 14 0 -3
BITMAP
00
00
00
88
44
22
1F
22
44
88
00
00
00
00
ENDCHAR
STARTCHAR char8618
ENCODING 8618
SWIDTH 548 0
DWIDTH 8 0
BBX 8 14 0 -3
BITMAP
00
40
40
40
40
44
46
3F
06
04
00
00
00
00
ENDCHAR
STARTCHAR char8633
ENCODING 8633
SWIDTH 548 0
DWIDTH 8 0
BBX 8 14 0 -3
BITMAP
00
00
80
A0
FE
A0
81
05
7F
05
01
00
00
00
ENDCHAR
STARTCHAR char8636
ENCODING 8636
SWIDTH 548 0
DWIDTH 8 0
BBX 8 14 0 -3
BITMAP
00
00
00
08
10
20
7E
00
00
00
00
00
00
00
ENDCHAR
STARTCHAR char8637
ENCODING 8637
SWIDTH 548 0
DWIDTH 8 0
BBX 8 14 0 -3
BITMAP
00
00
00
00
00
00
7E
20
10
08
00
00
00
00
ENDCHAR
STARTCHAR char8638
ENCODING 8638
SWIDTH 548 0
DWIDTH 8 0
BBX 8 14 0 -3
BITMAP
00
00
00
00
10
18
14
12
10
10
00
00
00
00
ENDCHAR
STARTCHAR char8639
ENCODING 8639
SWIDTH 548 0
DWIDTH 8 0
BBX 8 14 0 -3
BITMAP
00
00
00
00
08
18
28
48
08
08
00
00
00
00
ENDCHAR
STARTCHAR char8640
ENCODING 8640
SWIDTH 548 0
DWIDTH 8 0
BBX 8 14 0 -3
BITMAP
00
00
00
08
04
02
FF
00
00
00
00
00
00
00
ENDCHAR
STARTCHAR char8641
ENCODING 8641
SWIDTH 548 0
DWIDTH 8 0
BBX 8 14 0 -3
BITMAP
00
00
00
00
00
00
FF
02
04
08
00
00
00
00
ENDCHAR
STARTCHAR char8642
ENCODING 8642
SWIDTH 548 0
DWIDTH 8 0
BBX 8 14 0 -3
BITMAP
00
00
00
10
10
10
10
12
14
18
10
00
00
00
ENDCHAR
STARTCHAR char8643
ENCODING 8643
SWIDTH 548 0
DWIDTH 8 0
BBX 8 14 0 -3
BITMAP
00
00
00
08
08
08
08
48
28
18
08
00
00
00
ENDCHAR
STARTCHAR char8644
ENCODING 8644
SWIDTH 548 0
DWIDTH 8 0
BBX 8 14 0 -3
BITMAP
00
00
04
02
7F
02
24
40
FE
40
20
00
00
00
ENDCHAR
STARTCHAR char8644
ENCODING 8645
SWIDTH 548 0
DWIDTH 8 0
BBX 8 14 0 -3
BITMAP
00
00
00
20
74
AC
24
24
35
2E
04
00
00
00
ENDCHAR
STARTCHAR char8644
ENCODING 8646
SWIDTH 548 0
DWIDTH 8 0
BBX 8 14 0 -3
BITMAP
00
00
20
40
FE
40
24
02
7F
02
04
00
00
00
ENDCHAR
STARTCHAR char8644
ENCODING 8647
SWIDTH 548 0
DWIDTH 8 0
BBX 8 14 0 -3
BITMAP
00
00
10
20
7F
20
30
40
FE
40
20
00
00
00
ENDCHAR
STARTCHAR char8644
ENCODING 8648
SWIDTH 548 0
DWIDTH 8 0
BBX 8 14 0 -3
BITMAP
00
00
00
20
74
AE
35
24
24
24
04
00
00
00
ENDCHAR
STARTCHAR char8644
ENCODING 8649
SWIDTH 548 0
DWIDTH 8 0
BBX 8 14 0 -3
BITMAP
00
00
08
04
FE
04
0C
02
7F
02
04
00
00
00
ENDCHAR
STARTCHAR char8644
ENCODING 8650
SWIDTH 548 0
DWIDTH 8 0
BBX 8 14 0 -3
BITMAP
00
00
00
04
24
24
24
35
AE
74
20
00
00
00
ENDCHAR
STARTCHAR char8651
ENCODING 8651
SWIDTH 548 0
DWIDTH 8 0
BBX 8 14 0 -3
BITMAP
00
00
10
20
40
FF
00
FF
02
04
08
00
00
00
ENDCHAR
STARTCHAR char8651
ENCODING 8652
SWIDTH 548 0
DWIDTH 8 0
BBX 8 14 0 -3
BITMAP
00
00
08
04
02
FF
00
FF
40
20
10
00
00
00
ENDCHAR
STARTCHAR char8674
ENCODING 8674
SWIDTH 548 0
DWIDTH 8 0
BBX 8 14 0 -3
BITMAP
00
00
00
10
08
04
52
04
08
10
00
00
00
00
ENDCHAR
STARTCHAR char8678
ENCODING 8678
SWIDTH 548 0
DWIDTH 8 0
BBX 8 14 0 -3
BITMAP
00
00
00
10
30
7F
FF
FF
7F
30
10
00
00
00
ENDCHAR
STARTCHAR char8678
ENCODING 8679
SWIDTH 548 0
DWIDTH 8 0
BBX 8 14 0 -3
BITMAP
00
00
18
3C
7E
FF
3C
3C
3C
3C
3C
3C
00
00
ENDCHAR
STARTCHAR char8678
ENCODING 8680
SWIDTH 548 0
DWIDTH 8 0
BBX 8 14 0 -3
BITMAP
00
00
00
08
0C
FE
FF
FF
FE
0C
08
00
00
00
ENDCHAR
STARTCHAR char8678
ENCODING 8681
SWIDTH 548 0
DWIDTH 8 0
BBX 8 14 0 -3
BITMAP
00
00
3C
3C
3C
3C
3C
3C
FF
7E
3C
18
00
00
ENDCHAR
STARTCHAR char8678
ENCODING 8682
SWIDTH 548 0
DWIDTH 8 0
BBX 8 14 0 -3
BITMAP
00
00
18
3C
7E
FF
3C
3C
00
00
3C
3C
00
00
ENDCHAR
STARTCHAR char8734
ENCODING 8734
SWIDTH 548 0
DWIDTH 8 0
BBX 8 14 0 -3
BITMAP
00
00
00
00
66
99
99
99
66
00
00
00
00
00
ENDCHAR
STARTCHAR char8882
ENCODING 8882
SWIDTH 548 0
DWIDTH 8 0
BBX 8 14 0 -3
BITMAP
00
00
06
0A
12
22
42
22
12
0A
06
00
00
00
ENDCHAR
STARTCHAR char8883
ENCODING 8883
SWIDTH 548 0
DWIDTH 8 0
BBX 8 14 0 -3
BITMAP
00
00
60
50
48
44
42
44
48
50
60
00
00
00
ENDCHAR
STARTCHAR char8920
ENCODING 8920
SWIDTH 548 0
DWIDTH 8 0
BBX 8 14 0 -3
BITMAP
00
00
00
15
2A
54
A8
54
2A
15
00
00
00
00
ENDCHAR
STARTCHAR char8921
ENCODING 8921
SWIDTH 548 0
DWIDTH 8 0
BBX 8 14 0 -3
BITMAP
00
00
00
A8
54
2A
15
2A
54
A8
00
00
00
00
ENDCHAR
STARTCHAR char8942
ENCODING 8942
SWIDTH 548 0
DWIDTH 8 0
BBX 8 14 0 -3
BITMAP
00
00
08
08
00
00
08
08
00
00
08
08
00
00
ENDCHAR
STARTCHAR char8943
ENCODING 8943
SWIDTH 548 0
DWIDTH 8 0
BBX 8 14 0 -3
BITMAP
00
00
00
00
00
00
DB
00
00
00
00
00
00
00
ENDCHAR
STARTCHAR char8944
ENCODING 8944
SWIDTH 548 0
DWIDTH 8 0
BBX 8 14 0 -3
BITMAP
00
02
02
00
00
08
08
10
10
00
00
40
40
00
ENDCHAR
STARTCHAR char8945
ENCODING 8945
SWIDTH 548 0
DWIDTH 8 0
BBX 8 14 0 -3
BITMAP
00
40
40
00
00
10
10
08
08
00
00
02
02
00
ENDCHAR
STARTCHAR char8976
ENCODING 8976
SWIDTH 548 0
DWIDTH 8 0
BBX 8 14 0 -3
BITMAP
00
00
00
00
00
00
0F
08
08
08
08
08
08
08
ENDCHAR
STARTCHAR char8982
ENCODING 8982
SWIDTH 548 0
DWIDTH 8 0
BBX 8 14 0 -3
BITMAP
00
00
00
00
10
7C
54
FE
54
7C
10
00
00
00
ENDCHAR
STARTCHAR char8987
ENCODING 8987
SWIDTH 548 0
DWIDTH 8 0
BBX 8 14 0 -3
BITMAP
00
00
7E
42
42
3C
18
24
42
5A
7E
7E
00
00
ENDCHAR
STARTCHAR char9007
ENCODING 9007
SWIDTH 548 0
DWIDTH 8 0
BBX 8 14 0 -3
BITMAP
00
00
00
00
3C
00
FF
00
3C
00
00
00
00
00
ENDCHAR
STARTCHAR char9015
ENCODING 9015
SWIDTH 548 0
DWIDTH 8 0
BBX 8 14 0 -3
BITMAP
00
00
3C
24
24
24
24
24
24
24
24
3C
00
00
ENDCHAR
STARTCHAR char9016
ENCODING 9016
SWIDTH 548 0
DWIDTH 8 0
BBX 8 14 0 -3
BITMAP
00
7E
42
42
42
42
42
42
42
42
42
42
7E
00
ENDCHAR
STARTCHAR char9096
ENCODING 9096
SWIDTH 548 0
DWIDTH 8 0
BBX 8 14 0 -3
BITMAP
00
00
00
81
5A
3C
7E
7E
3C
5A
81
00
00
00
ENDCHAR
STARTCHAR char9115
ENCODING 9115
SWIDTH 548 0
DWIDTH 8 0
BBX 8 14 0 -3
BITMAP
01
02
04
04
08
08
08
08
08
08
08
08
08
08
ENDCHAR
STARTCHAR char9116
ENCODING 9116
SWIDTH 548 0
DWIDTH 8 0
BBX 8 14 0 -3
BITMAP
08
08
08
08
08
08
08
08
08
08
08
08
08
08
ENDCHAR
STARTCHAR char9115
ENCODING 9117
SWIDTH 548 0
DWIDTH 8 0
BBX 8 14 0 -3
BITMAP
08
08
08
08
08
08
08
08
08
08
04
04
02
01
ENDCHAR
STARTCHAR char9115
ENCODING 9118
SWIDTH 548 0
DWIDTH 8 0
BBX 8 14 0 -3
BITMAP
40
20
10
10
08
08
08
08
08
08
08
08
08
08
ENDCHAR
STARTCHAR char9119
ENCODING 9119
SWIDTH 548 0
DWIDTH 8 0
BBX 8 14 0 -3
BITMAP
08
08
08
08
08
08
08
08
08
08
08
08
08
08
ENDCHAR
STARTCHAR char9115
ENCODING 9120
SWIDTH 548 0
DWIDTH 8 0
BBX 8 14 0 -3
BITMAP
08
08
08
08
08
08
08
08
08
08
10
10
20
40
ENDCHAR
STARTCHAR char9121
ENCODING 9121
SWIDTH 548 0
DWIDTH 8 0
BBX 8 14 0 -3
BITMAP
0F
08
08
08
08
08
08
08
08
08
08
08
08
08
ENDCHAR
STARTCHAR char9122
ENCODING 9122
SWIDTH 548 0
DWIDTH 8 0
BBX 8 14 0 -3
BITMAP
08
08
08
08
08
08
08
08
08
08
08
08
08
08
ENDCHAR
STARTCHAR char9123
ENCODING 9123
SWIDTH 548 0
DWIDTH 8 0
BBX 8 14 0 -3
BITMAP
08
08
08
08
08
08
08
08
08
08
08
08
08
0F
ENDCHAR
STARTCHAR char9124
ENCODING 9124
SWIDTH 548 0
DWIDTH 8 0
BBX 8 14 0 -3
BITMAP
78
08
08
08
08
08
08
08
08
08
08
08
08
08
ENDCHAR
STARTCHAR char9125
ENCODING 9125
SWIDTH 548 0
DWIDTH 8 0
BBX 8 14 0 -3
BITMAP
08
08
08
08
08
08
08
08
08
08
08
08
08
08
ENDCHAR
STARTCHAR char9126
ENCODING 9126
SWIDTH 548 0
DWIDTH 8 0
BBX 8 14 0 -3
BITMAP
08
08
08
08
08
08
08
08
08
08
08
08
08
78
ENDCHAR
STARTCHAR char9127
ENCODING 9127
SWIDTH 548 0
DWIDTH 8 0
BBX 8 14 0 -3
BITMAP
03
04
08
08
08
08
08
08
08
08
08
08
08
08
ENDCHAR
STARTCHAR char9128
ENCODING 9128
SWIDTH 548 0
DWIDTH 8 0
BBX 8 14 0 -3
BITMAP
08
08
08
08
08
10
60
10
08
08
08
08
08
08
ENDCHAR
STARTCHAR char9127
ENCODING 9129
SWIDTH 548 0
DWIDTH 8 0
BBX 8 14 0 -3
BITMAP
08
08
08
08
08
08
08
08
08
08
08
08
04
03
ENDCHAR
STARTCHAR char9130
ENCODING 9130
SWIDTH 548 0
DWIDTH 8 0
BBX 8 14 0 -3
BITMAP
08
08
08
08
08
08
08
08
08
08
08
08
08
08
ENDCHAR
STARTCHAR char9127
ENCODING 9131
SWIDTH 548 0
DWIDTH 8 0
BBX 8 14 0 -3
BITMAP
60
10
08
08
08
08
08
08
08
08
08
08
08
08
ENDCHAR
STARTCHAR char9128
ENCODING 9132
SWIDTH 548 0
DWIDTH 8 0
BBX 8 14 0 -3
BITMAP
08
08
08
08
08
04
03
04
08
08
08
08
08
08
ENDCHAR
STARTCHAR char9127
ENCODING 9133
SWIDTH 548 0
DWIDTH 8 0
BBX 8 14 0 -3
BITMAP
08
08
08
08
08
08
08
08
08
08
08
08
10
60
ENDCHAR
STARTCHAR char9134
ENCODING 9134
SWIDTH 548 0
DWIDTH 8 0
BBX 8 14 0 -3
BITMAP
08
08
08
08
08
08
08
08
08
08
08
08
08
08
ENDCHAR
STARTCHAR char9143
ENCODING 9143
SWIDTH 548 0
DWIDTH 8 0
BBX 8 14 0 -3
BITMAP
08
08
08
08
08
08
C8
28
18
18
08
00
00
00
ENDCHAR
STARTCHAR char9193
ENCODING 9193
SWIDTH 548 0
DWIDTH 8 0
BBX 8 14 0 -3
BITMAP
00
00
00
88
CC
EE
FF
FF
EE
CC
88
00
00
00
ENDCHAR
STARTCHAR char9193
ENCODING 9194
SWIDTH 548 0
DWIDTH 8 0
BBX 8 14 0 -3
BITMAP
00
00
00
11
33
77
FF
FF
77
33
11
00
00
00
ENDCHAR
STARTCHAR char9193
ENCODING 9195
SWIDTH 548 0
DWIDTH 8 0
BBX 8 14 0 -3
BITMAP
00
00
00
18
3C
7E
FF
18
3C
7E
FF
00
00
00
ENDCHAR
STARTCHAR char9193
ENCODING 9196
SWIDTH 548 0
DWIDTH 8 0
BBX 8 14 0 -3
BITMAP
00
00
00
FF
7E
3C
18
FF
7E
3C
18
00
00
00
ENDCHAR
STARTCHAR char9193
ENCODING 9197
SWIDTH 548 0
DWIDTH 8 0
BBX 8 14 0 -3
BITMAP
00
00
00
C7
E7
F7
FF
FF
F7
E7
C7
00
00
00
ENDCHAR
STARTCHAR char9193
ENCODING 9198
SWIDTH 548 0
DWIDTH 8 0
BBX 8 14 0 -3
BITMAP
00
00
00
E3
E7
EF
FF
FF
EF
E7
E3
00
00
00
ENDCHAR
STARTCHAR char9193
ENCODING 9199
SWIDTH 548 0
DWIDTH 8 0
BBX 8 14 0 -3
BITMAP
00
00
00
85
C5
E5
F5
F5
E5
C5
85
00
00
00
ENDCHAR
STARTCHAR char9202
ENCODING 9202
SWIDTH 548 0
DWIDTH 8 0
BBX 8 14 0 -3
BITMAP
00
00
00
7E
91
91
91
8D
81
81
7E
00
00
00
ENDCHAR
STARTCHAR char8987
ENCODING 9203
SWIDTH 548 0
DWIDTH 8 0
BBX 8 14 0 -3
BITMAP
00
00
FE
82
82
7C
38
28
44
92
FE
FE
00
00
ENDCHAR
STARTCHAR char9204
ENCODING 9204
SWIDTH 548 0
DWIDTH 8 0
BBX 8 14 0 -3
BITMAP
00
00
00
0C
1C
3C
7C
7C
3C
1C
0C
00
00
00
ENDCHAR
STARTCHAR char9204
ENCODING 9205
SWIDTH 548 0
DWIDTH 8 0
BBX 8 14 0 -3
BITMAP
00
00
00
30
38
3C
3E
3E
3C
38
30
00
00
00
ENDCHAR
STARTCHAR char9193
ENCODING 9208
SWIDTH 548 0
DWIDTH 8 0
BBX 8 14 0 -3
BITMAP
00
00
00
E7
E7
E7
E7
E7
E7
E7
E7
00
00
00
ENDCHAR
STARTCHAR char9193
ENCODING 9209
SWIDTH 548 0
DWIDTH 8 0
BBX 8 14 0 -3
BITMAP
00
00
00
FF
FF
FF
FF
FF
FF
FF
FF
00
00
00
ENDCHAR
STARTCHAR char9193
ENCODING 9210
SWIDTH 548 0
DWIDTH 8 0
BBX 8 14 0 -3
BITMAP
00
00
00
3C
7E
FF
FF
FF
FF
7E
3C
00
00
00
ENDCHAR
STARTCHAR char9211
ENCODING 9211
SWIDTH 548 0
DWIDTH 8 0
BBX 8 14 0 -3
BITMAP
00
00
18
18
5A
DB
DB
C3
C3
7E
3C
00
00
00
ENDCHAR
STARTCHAR char9472
ENCODING 9472
SWIDTH 548 0
DWIDTH 8 0
BBX 8 14 0 -3
BITMAP
00
00
00
00
00
00
FF
00
00
00
00
00
00
00
ENDCHAR
STARTCHAR char9473
ENCODING 9473
SWIDTH 548 0
DWIDTH 8 0
BBX 8 14 0 -3
BITMAP
00
00
00
00
00
00
FF
FF
00
00
00
00
00
00
ENDCHAR
STARTCHAR char9474
ENCODING 9474
SWIDTH 548 0
DWIDTH 8 0
BBX 8 14 0 -3
BITMAP
08
08
08
08
08
08
08
08
08
08
08
08
08
08
ENDCHAR
STARTCHAR char9475
ENCODING 9475
SWIDTH 548 0
DWIDTH 8 0
BBX 8 14 0 -3
BITMAP
18
18
18
18
18
18
18
18
18
18
18
18
18
18
ENDCHAR
STARTCHAR char9476
ENCODING 9476
SWIDTH 548 0
DWIDTH 8 0
BBX 8 14 0 -3
BITMAP
00
00
00
00
00
00
DA
00
00
00
00
00
00
00
ENDCHAR
STARTCHAR char9477
ENCODING 9477
SWIDTH 548 0
DWIDTH 8 0
BBX 8 14 0 -3
BITMAP
00
00
00
00
00
00
DA
DA
00
00
00
00
00
00
ENDCHAR
STARTCHAR char9478
ENCODING 9478
SWIDTH 548 0
DWIDTH 8 0
BBX 8 14 0 -3
BITMAP
08
08
00
08
08
00
08
08
00
08
08
00
08
08
ENDCHAR
STARTCHAR char9479
ENCODING 9479
SWIDTH 548 0
DWIDTH 8 0
BBX 8 14 0 -3
BITMAP
18
18
00
18
18
00
18
18
00
18
18
00
18
18
ENDCHAR
STARTCHAR char9480
ENCODING 9480
SWIDTH 548 0
DWIDTH 8 0
BBX 8 14 0 -3
BITMAP
00
00
00
00
00
00
55
00
00
00
00
00
00
00
ENDCHAR
STARTCHAR char9481
ENCODING 9481
SWIDTH 548 0
DWIDTH 8 0
BBX 8 14 0 -3
BITMAP
00
00
00
00
00
00
55
55
00
00
00
00
00
00
ENDCHAR
STARTCHAR char9482
ENCODING 9482
SWIDTH 548 0
DWIDTH 8 0
BBX 8 14 0 -3
BITMAP
08
00
08
00
08
00
08
00
08
00
08
00
08
00
ENDCHAR
STARTCHAR char9483
ENCODING 9483
SWIDTH 548 0
DWIDTH 8 0
BBX 8 14 0 -3
BITMAP
18
00
18
00
18
00
18
00
18
00
18
00
18
00
ENDCHAR
STARTCHAR char9484
ENCODING 9484
SWIDTH 548 0
DWIDTH 8 0
BBX 8 14 0 -3
BITMAP
00
00
00
00
00
00
0F
08
08
08
08
08
08
08
ENDCHAR
STARTCHAR char9485
ENCODING 9485
SWIDTH 548 0
DWIDTH 8 0
BBX 8 14 0 -3
BITMAP
00
00
00
00
00
00
0F
0F
08
08
08
08
08
08
ENDCHAR
STARTCHAR char9486
ENCODING 9486
SWIDTH 548 0
DWIDTH 8 0
BBX 8 14 0 -3
BITMAP
00
00
00
00
00
00
1F
18
18
18
18
18
18
18
ENDCHAR
STARTCHAR char9487
ENCODING 9487
SWIDTH 548 0
DWIDTH 8 0
BBX 8 14 0 -3
BITMAP
00
00
00
00
00
00
1F
1F
18
18
18
18
18
18
ENDCHAR
STARTCHAR char9491
ENCODING 9488
SWIDTH 548 0
DWIDTH 8 0
BBX 8 14 0 -3
BITMAP
00
00
00
00
00
00
F8
08
08
08
08
08
08
08
ENDCHAR
STARTCHAR char9491
ENCODING 9489
SWIDTH 548 0
DWIDTH 8 0
BBX 8 14 0 -3
BITMAP
00
00
00
00
00
00
F8
F8
08
08
08
08
08
08
ENDCHAR
STARTCHAR char9491
ENCODING 9490
SWIDTH 548 0
DWIDTH 8 0
BBX 8 14 0 -3
BITMAP
00
00
00
00
00
00
F8
18
18
18
18
18
18
18
ENDCHAR
STARTCHAR char9491
ENCODING 9491
SWIDTH 548 0
DWIDTH 8 0
BBX 8 14 0 -3
BITMAP
00
00
00
00
00
00
F8
F8
18
18
18
18
18
18
ENDCHAR
STARTCHAR char9495
ENCODING 9492
SWIDTH 548 0
DWIDTH 8 0
BBX 8 14 0 -3
BITMAP
08
08
08
08
08
08
0F
00
00
00
00
00
00
00
ENDCHAR
STARTCHAR char9495
ENCODING 9493
SWIDTH 548 0
DWIDTH 8 0
BBX 8 14 0 -3
BITMAP
08
08
08
08
08
08
0F
0F
00
00
00
00
00
00
ENDCHAR
STARTCHAR char9495
ENCODING 9494
SWIDTH 548 0
DWIDTH 8 0
BBX 8 14 0 -3
BITMAP
18
18
18
18
18
18
1F
00
00
00
00
00
00
00
ENDCHAR
STARTCHAR char9495
ENCODING 9495
SWIDTH 548 0
DWIDTH 8 0
BBX 8 14 0 -3
BITMAP
18
18
18
18
18
18
1F
1F
00
00
00
00
00
00
ENDCHAR
STARTCHAR char9499
ENCODING 9496
SWIDTH 548 0
DWIDTH 8 0
BBX 8 14 0 -3
BITMAP
08
08
08
08
08
08
F8
00
00
00
00
00
00
00
ENDCHAR
STARTCHAR char9499
ENCODING 9497
SWIDTH 548 0
DWIDTH 8 0
BBX 8 14 0 -3
BITMAP
08
08
08
08
08
08
F8
F8
00
00
00
00
00
00
ENDCHAR
STARTCHAR char9499
ENCODING 9498
SWIDTH 548 0
DWIDTH 8 0
BBX 8 14 0 -3
BITMAP
18
18
18
18
18
18
F8
00
00
00
00
00
00
00
ENDCHAR
STARTCHAR char9499
ENCODING 9499
SWIDTH 548 0
DWIDTH 8 0
BBX 8 14 0 -3
BITMAP
18
18
18
18
18
18
F8
F8
00
00
00
00
00
00
ENDCHAR
STARTCHAR char9515
ENCODING 9500
SWIDTH 548 0
DWIDTH 8 0
BBX 8 14 0 -3
BITMAP
08
08
08
08
08
08
0F
08
08
08
08
08
08
08
ENDCHAR
STARTCHAR char9515
ENCODING 9501
SWIDTH 548 0
DWIDTH 8 0
BBX 8 14 0 -3
BITMAP
08
08
08
08
08
08
0F
0F
08
08
08
08
08
08
ENDCHAR
STARTCHAR char9515
ENCODING 9502
SWIDTH 548 0
DWIDTH 8 0
BBX 8 14 0 -3
BITMAP
18
18
18
18
18
18
1F
08
08
08
08
08
08
08
ENDCHAR
STARTCHAR char9515
ENCODING 9503
SWIDTH 548 0
DWIDTH 8 0
BBX 8 14 0 -3
BITMAP
08
08
08
08
08
08
1F
18
18
18
18
18
18
18
ENDCHAR
STARTCHAR char9515
ENCODING 9504
SWIDTH 548 0
DWIDTH 8 0
BBX 8 14 0 -3
BITMAP
18
18
18
18
18
18
1F
18
18
18
18
18
18
18
ENDCHAR
STARTCHAR char9515
ENCODING 9505
SWIDTH 548 0
DWIDTH 8 0
BBX 8 14 0 -3
BITMAP
18
18
18
18
18
18
1F
0F
08
08
08
08
08
08
ENDCHAR
STARTCHAR char9515
ENCODING 9506
SWIDTH 548 0
DWIDTH 8 0
BBX 8 14 0 -3
BITMAP
08
08
08
08
08
08
1F
1F
18
18
18
18
18
18
ENDCHAR
STARTCHAR char9515
ENCODING 9507
SWIDTH 548 0
DWIDTH 8 0
BBX 8 14 0 -3
BITMAP
18
18
18
18
18
18
1F
1F
18
18
18
18
18
18
ENDCHAR
STARTCHAR char9515
ENCODING 9508
SWIDTH 548 0
DWIDTH 8 0
BBX 8 14 0 -3
BITMAP
08
08
08
08
08
08
F8
08
08
08
08
08
08
08
ENDCHAR
STARTCHAR char9515
ENCODING 9509
SWIDTH 548 0
DWIDTH 8 0
BBX 8 14 0 -3
BITMAP
08
08
08
08
08
08
F8
F8
08
08
08
08
08
08
ENDCHAR
STARTCHAR char9515
ENCODING 9510
SWIDTH 548 0
DWIDTH 8 0
BBX 8 14 0 -3
BITMAP
18
18
18
18
18
18
F8
08
08
08
08
08
08
08
ENDCHAR
STARTCHAR char9515
ENCODING 9511
SWIDTH 548 0
DWIDTH 8 0
BBX 8 14 0 -3
BITMAP
08
08
08
08
08
08
F8
18
18
18
18
18
18
18
ENDCHAR
STARTCHAR char9515
ENCODING 9512
SWIDTH 548 0
DWIDTH 8 0
BBX 8 14 0 -3
BITMAP
18
18
18
18
18
18
F8
18
18
18
18
18
18
18
ENDCHAR
STARTCHAR char9515
ENCODING 9513
SWIDTH 548 0
DWIDTH 8 0
BBX 8 14 0 -3
BITMAP
18
18
18
18
18
18
F8
F8
08
08
08
08
08
08
ENDCHAR
STARTCHAR char9515
ENCODING 9514
SWIDTH 548 0
DWIDTH 8 0
BBX 8 14 0 -3
BITMAP
08
08
08
08
08
08
F8
F8
18
18
18
18
18
18
ENDCHAR
STARTCHAR char9515
ENCODING 9515
SWIDTH 548 0
DWIDTH 8 0
BBX 8 14 0 -3
BITMAP
18
18
18
18
18
18
F8
F8
18
18
18
18
18
18
ENDCHAR
STARTCHAR char9523
ENCODING 9516
SWIDTH 548 0
DWIDTH 8 0
BBX 8 14 0 -3
BITMAP
00
00
00
00
00
00
FF
08
08
08
08
08
08
08
ENDCHAR
STARTCHAR char9523
ENCODING 9517
SWIDTH 548 0
DWIDTH 8 0
BBX 8 14 0 -3
BITMAP
00
00
00
00
00
00
FF
F8
08
08
08
08
08
08
ENDCHAR
STARTCHAR char9523
ENCODING 9518
SWIDTH 548 0
DWIDTH 8 0
BBX 8 14 0 -3
BITMAP
00
00
00
00
00
00
FF
0F
08
08
08
08
08
08
ENDCHAR
STARTCHAR char9523
ENCODING 9519
SWIDTH 548 0
DWIDTH 8 0
BBX 8 14 0 -3
BITMAP
00
00
00
00
00
00
FF
FF
08
08
08
08
08
08
ENDCHAR
STARTCHAR char9523
ENCODING 9520
SWIDTH 548 0
DWIDTH 8 0
BBX 8 14 0 -3
BITMAP
00
00
00
00
00
00
FF
18
18
18
18
18
18
18
ENDCHAR
STARTCHAR char9523
ENCODING 9521
SWIDTH 548 0
DWIDTH 8 0
BBX 8 14 0 -3
BITMAP
00
00
00
00
00
00
FF
F8
18
18
18
18
18
18
ENDCHAR
STARTCHAR char9523
ENCODING 9522
SWIDTH 548 0
DWIDTH 8 0
BBX 8 14 0 -3
BITMAP
00
00
00
00
00
00
FF
1F
18
18
18
18
18
18
ENDCHAR
STARTCHAR char9523
ENCODING 9523
SWIDTH 548 0
DWIDTH 8 0
BBX 8 14 0 -3
BITMAP
00
00
00
00
00
00
FF
FF
18
18
18
18
18
18
ENDCHAR
STARTCHAR char9531
ENCODING 9524
SWIDTH 548 0
DWIDTH 8 0
BBX 8 14 0 -3
BITMAP
08
08
08
08
08
08
FF
00
00
00
00
00
00
00
ENDCHAR
STARTCHAR char9531
ENCODING 9525
SWIDTH 548 0
DWIDTH 8 0
BBX 8 14 0 -3
BITMAP
08
08
08
08
08
08
FF
F0
00
00
00
00
00
00
ENDCHAR
STARTCHAR char9531
ENCODING 9526
SWIDTH 548 0
DWIDTH 8 0
BBX 8 14 0 -3
BITMAP
08
08
08
08
08
08
FF
0F
00
00
00
00
00
00
ENDCHAR
STARTCHAR char9531
ENCODING 9527
SWIDTH 548 0
DWIDTH 8 0
BBX 8 14 0 -3
BITMAP
08
08
08
08
08
08
FF
FF
00
00
00
00
00
00
ENDCHAR
STARTCHAR char9531
ENCODING 9528
SWIDTH 548 0
DWIDTH 8 0
BBX 8 14 0 -3
BITMAP
18
18
18
18
18
18
FF
00
00
00
00
00
00
00
ENDCHAR
STARTCHAR char9531
ENCODING 9529
SWIDTH 548 0
DWIDTH 8 0
BBX 8 14 0 -3
BITMAP
18
18
18
18
18
18
FF
F0
00
00
00
00
00
00
ENDCHAR
STARTCHAR char9531
ENCODING 9530
SWIDTH 548 0
DWIDTH 8 0
BBX 8 14 0 -3
BITMAP
18
18
18
18
18
18
FF
0F
00
00
00
00
00
00
ENDCHAR
STARTCHAR char9531
ENCODING 9531
SWIDTH 548 0
DWIDTH 8 0
BBX 8 14 0 -3
BITMAP
18
18
18
18
18
18
FF
FF
00
00
00
00
00
00
ENDCHAR
STARTCHAR char9547
ENCODING 9532
SWIDTH 548 0
DWIDTH 8 0
BBX 8 14 0 -3
BITMAP
08
08
08
08
08
08
FF
08
08
08
08
08
08
08
ENDCHAR
STARTCHAR char9547
ENCODING 9533
SWIDTH 548 0
DWIDTH 8 0
BBX 8 14 0 -3
BITMAP
08
08
08
08
08
08
FF
F8
08
08
08
08
08
08
ENDCHAR
STARTCHAR char9547
ENCODING 9534
SWIDTH 548 0
DWIDTH 8 0
BBX 8 14 0 -3
BITMAP
08
08
08
08
08
08
FF
0F
08
08
08
08
08
08
ENDCHAR
STARTCHAR char9547
ENCODING 9535
SWIDTH 548 0
DWIDTH 8 0
BBX 8 14 0 -3
BITMAP
08
08
08
08
08
08
FF
FF
08
08
08
08
08
08
ENDCHAR
STARTCHAR char9547
ENCODING 9536
SWIDTH 548 0
DWIDTH 8 0
BBX 8 14 0 -3
BITMAP
18
18
18
18
18
18
FF
08
08
08
08
08
08
08
ENDCHAR
STARTCHAR char9547
ENCODING 9537
SWIDTH 548 0
DWIDTH 8 0
BBX 8 14 0 -3
BITMAP
08
08
08
08
08
08
FF
18
18
18
18
18
18
18
ENDCHAR
STARTCHAR char9547
ENCODING 9538
SWIDTH 548 0
DWIDTH 8 0
BBX 8 14 0 -3
BITMAP
18
18
18
18
18
18
FF
18
18
18
18
18
18
18
ENDCHAR
STARTCHAR char9547
ENCODING 9539
SWIDTH 548 0
DWIDTH 8 0
BBX 8 14 0 -3
BITMAP
18
18
18
18
18
18
FF
F8
08
08
08
08
08
08
ENDCHAR
STARTCHAR char9547
ENCODING 9540
SWIDTH 548 0
DWIDTH 8 0
BBX 8 14 0 -3
BITMAP
18
18
18
18
18
18
FF
0F
08
08
08
08
08
08
ENDCHAR
STARTCHAR char9547
ENCODING 9541
SWIDTH 548 0
DWIDTH 8 0
BBX 8 14 0 -3
BITMAP
08
08
08
08
08
08
FF
F8
18
18
18
18
18
18
ENDCHAR
STARTCHAR char9547
ENCODING 9542
SWIDTH 548 0
DWIDTH 8 0
BBX 8 14 0 -3
BITMAP
08
08
08
08
08
08
FF
1F
18
18
18
18
18
18
ENDCHAR
STARTCHAR char9547
ENCODING 9543
SWIDTH 548 0
DWIDTH 8 0
BBX 8 14 0 -3
BITMAP
18
18
18
18
18
18
FF
FF
08
08
08
08
08
08
ENDCHAR
STARTCHAR char9547
ENCODING 9544
SWIDTH 548 0
DWIDTH 8 0
BBX 8 14 0 -3
BITMAP
08
08
08
08
08
08
FF
FF
18
18
18
18
18
18
ENDCHAR
STARTCHAR char9547
ENCODING 9545
SWIDTH 548 0
DWIDTH 8 0
BBX 8 14 0 -3
BITMAP
18
18
18
18
18
18
FF
F8
18
18
18
18
18
18
ENDCHAR
STARTCHAR char9547
ENCODING 9546
SWIDTH 548 0
DWIDTH 8 0
BBX 8 14 0 -3
BITMAP
18
18
18
18
18
18
FF
1F
18
18
18
18
18
18
ENDCHAR
STARTCHAR char9547
ENCODING 9547
SWIDTH 548 0
DWIDTH 8 0
BBX 8 14 0 -3
BITMAP
18
18
18
18
18
18
FF
FF
18
18
18
18
18
18
ENDCHAR
STARTCHAR char9548
ENCODING 9548
SWIDTH 548 0
DWIDTH 8 0
BBX 8 14 0 -3
BITMAP
00
00
00
00
00
00
E7
00
00
00
00
00
00
00
ENDCHAR
STARTCHAR char9549
ENCODING 9549
SWIDTH 548 0
DWIDTH 8 0
BBX 8 14 0 -3
BITMAP
00
00
00
00
00
00
E7
E7
00
00
00
00
00
00
ENDCHAR
STARTCHAR char9550
ENCODING 9550
SWIDTH 548 0
DWIDTH 8 0
BBX 8 14 0 -3
BITMAP
08
08
08
08
08
08
00
00
08
08
08
08
08
08
ENDCHAR
STARTCHAR char9551
ENCODING 9551
SWIDTH 548 0
DWIDTH 8 0
BBX 8 14 0 -3
BITMAP
18
18
18
18
18
18
00
00
18
18
18
18
18
18
ENDCHAR
STARTCHAR char9552
ENCODING 9552
SWIDTH 548 0
DWIDTH 8 0
BBX 8 14 0 -3
BITMAP
00
00
00
00
00
FF
00
FF
00
00
00
00
00
00
ENDCHAR
STARTCHAR char9553
ENCODING 9553
SWIDTH 548 0
DWIDTH 8 0
BBX 8 14 0 -3
BITMAP
14
14
14
14
14
14
14
14
14
14
14
14
14
14
ENDCHAR
STARTCHAR char9554
ENCODING 9554
SWIDTH 548 0
DWIDTH 8 0
BBX 8 14 0 -3
BITMAP
00
00
00
00
00
0F
08
0F
08
08
08
08
08
08
ENDCHAR
STARTCHAR char9555
ENCODING 9555
SWIDTH 548 0
DWIDTH 8 0
BBX 8 14 0 -3
BITMAP
00
00
00
00
00
00
1F
14
14
14
14
14
14
14
ENDCHAR
STARTCHAR char9556
ENCODING 9556
SWIDTH 548 0
DWIDTH 8 0
BBX 8 14 0 -3
BITMAP
00
00
00
00
00
1F
10
17
14
14
14
14
14
14
ENDCHAR
STARTCHAR char9557
ENCODING 9557
SWIDTH 548 0
DWIDTH 8 0
BBX 8 14 0 -3
BITMAP
00
00
00
00
00
F8
08
F8
08
08
08
08
08
08
ENDCHAR
STARTCHAR char9558
ENCODING 9558
SWIDTH 548 0
DWIDTH 8 0
BBX 8 14 0 -3
BITMAP
00
00
00
00
00
00
FC
14
14
14
14
14
14
14
ENDCHAR
STARTCHAR char9559
ENCODING 9559
SWIDTH 548 0
DWIDTH 8 0
BBX 8 14 0 -3
BITMAP
00
00
00
00
00
FC
04
F4
14
14
14
14
14
14
ENDCHAR
STARTCHAR char9560
ENCODING 9560
SWIDTH 548 0
DWIDTH 8 0
BBX 8 14 0 -3
BITMAP
08
08
08
08
08
0F
08
0F
00
00
00
00
00
00
ENDCHAR
STARTCHAR char9561
ENCODING 9561
SWIDTH 548 0
DWIDTH 8 0
BBX 8 14 0 -3
BITMAP
14
14
14
14
14
14
1F
00
00
00
00
00
00
00
ENDCHAR
STARTCHAR char9562
ENCODING 9562
SWIDTH 548 0
DWIDTH 8 0
BBX 8 14 0 -3
BITMAP
14
14
14
14
14
17
10
1F
00
00
00
00
00
00
ENDCHAR
STARTCHAR char9563
ENCODING 9563
SWIDTH 548 0
DWIDTH 8 0
BBX 8 14 0 -3
BITMAP
08
08
08
08
08
F8
08
F8
00
00
00
00
00
00
ENDCHAR
STARTCHAR char9564
ENCODING 9564
SWIDTH 548 0
DWIDTH 8 0
BBX 8 14 0 -3
BITMAP
14
14
14
14
14
14
FC
00
00
00
00
00
00
00
ENDCHAR
STARTCHAR char9565
ENCODING 9565
SWIDTH 548 0
DWIDTH 8 0
BBX 8 14 0 -3
BITMAP
14
14
14
14
14
F4
04
FC
00
00
00
00
00
00
ENDCHAR
STARTCHAR char9566
ENCODING 9566
SWIDTH 548 0
DWIDTH 8 0
BBX 8 14 0 -3
BITMAP
08
08
08
08
08
0F
08
0F
08
08
08
08
08
08
ENDCHAR
STARTCHAR char9567
ENCODING 9567
SWIDTH 548 0
DWIDTH 8 0
BBX 8 14 0 -3
BITMAP
14
14
14
14
14
14
17
14
14
14
14
14
14
14
ENDCHAR
STARTCHAR char9571
ENCODING 9568
SWIDTH 548 0
DWIDTH 8 0
BBX 8 14 0 -3
BITMAP
14
14
14
14
14
17
10
17
14
14
14
14
14
14
ENDCHAR
STARTCHAR char9569
ENCODING 9569
SWIDTH 548 0
DWIDTH 8 0
BBX 8 14 0 -3
BITMAP
08
08
08
08
08
F8
08
F8
08
08
08
08
08
08
ENDCHAR
STARTCHAR char9570
ENCODING 9570
SWIDTH 548 0
DWIDTH 8 0
BBX 8 14 0 -3
BITMAP
14
14
14
14
14
14
F4
14
14
14
14
14
14
14
ENDCHAR
STARTCHAR char9571
ENCODING 9571
SWIDTH 548 0
DWIDTH 8 0
BBX 8 14 0 -3
BITMAP
14
14
14
14
14
F4
04
F4
14
14
14
14
14
14
ENDCHAR
STARTCHAR char9572
ENCODING 9572
SWIDTH 548 0
DWIDTH 8 0
BBX 8 14 0 -3
BITMAP
00
00
00
00
00
FF
00
FF
08
08
08
08
08
08
ENDCHAR
STARTCHAR char9573
ENCODING 9573
SWIDTH 548 0
DWIDTH 8 0
BBX 8 14 0 -3
BITMAP
00
00
00
00
00
00
FF
14
14
14
14
14
14
14
ENDCHAR
STARTCHAR char9574
ENCODING 9574
SWIDTH 548 0
DWIDTH 8 0
BBX 8 14 0 -3
BITMAP
00
00
00
00
00
FF
00
F7
14
14
14
14
14
14
ENDCHAR
STARTCHAR char9575
ENCODING 9575
SWIDTH 548 0
DWIDTH 8 0
BBX 8 14 0 -3
BITMAP
08
08
08
08
08
FF
00
FF
00
00
00
00
00
00
ENDCHAR
STARTCHAR char9576
ENCODING 9576
SWIDTH 548 0
DWIDTH 8 0
BBX 8 14 0 -3
BITMAP
14
14
14
14
14
14
FF
00
00
00
00
00
00
00
ENDCHAR
STARTCHAR char9577
ENCODING 9577
SWIDTH 548 0
DWIDTH 8 0
BBX 8 14 0 -3
BITMAP
14
14
14
14
14
F7
00
FF
00
00
00
00
00
00
ENDCHAR
STARTCHAR char9578
ENCODING 9578
SWIDTH 548 0
DWIDTH 8 0
BBX 8 14 0 -3
BITMAP
08
08
08
08
08
FF
00
FF
08
08
08
08
08
08
ENDCHAR
STARTCHAR char9579
ENCODING 9579
SWIDTH 548 0
DWIDTH 8 0
BBX 8 14 0 -3
BITMAP
14
14
14
14
14
14
F7
14
14
14
14
14
14
14
ENDCHAR
STARTCHAR char9580
ENCODING 9580
SWIDTH 548 0
DWIDTH 8 0
BBX 8 14 0 -3
BITMAP
14
14
14
14
14
F7
00
F7
14
14
14
14
14
14
ENDCHAR
STARTCHAR char9581
ENCODING 9581
SWIDTH 548 0
DWIDTH 8 0
BBX 8 14 0 -3
BITMAP
00
00
00
00
00
00
03
04
08
08
08
08
08
08
ENDCHAR
STARTCHAR char9582
ENCODING 9582
SWIDTH 548 0
DWIDTH 8 0
BBX 8 14 0 -3
BITMAP
00
00
00
00
00
00
E0
10
08
08
08
08
08
08
ENDCHAR
STARTCHAR char9583
ENCODING 9583
SWIDTH 548 0
DWIDTH 8 0
BBX 8 14 0 -3
BITMAP
08
08
08
08
08
10
E0
00
00
00
00
00
00
00
ENDCHAR
STARTCHAR char9584
ENCODING 9584
SWIDTH 548 0
DWIDTH 8 0
BBX 8 14 0 -3
BITMAP
08
08
08
08
08
04
03
00
00
00
00
00
00
00
ENDCHAR
STARTCHAR char9585
ENCODING 9585
SWIDTH 548 0
DWIDTH 8 0
BBX 8 14 0 -3
BITMAP
01
02
02
04
04
08
08
10
10
20
20
40
40
80
ENDCHAR
STARTCHAR char9586
ENCODING 9586
SWIDTH 548 0
DWIDTH 8 0
BBX 8 14 0 -3
BITMAP
80
40
40
20
20
10
10
08
08
04
04
02
02
01
ENDCHAR
STARTCHAR char9587
ENCODING 9587
SWIDTH 548 0
DWIDTH 8 0
BBX 8 14 0 -3
BITMAP
81
42
42
24
24
18
18
18
18
24
24
42
42
81
ENDCHAR
STARTCHAR char9588
ENCODING 9588
SWIDTH 548 0
DWIDTH 8 0
BBX 8 14 0 -3
BITMAP
00
00
00
00
00
00
3C
00
00
00
00
00
00
00
ENDCHAR
STARTCHAR char9589
ENCODING 9589
SWIDTH 548 0
DWIDTH 8 0
BBX 8 14 0 -3
BITMAP
08
08
08
08
08
08
08
00
00
00
00
00
00
00
ENDCHAR
STARTCHAR char9590
ENCODING 9590
SWIDTH 548 0
DWIDTH 8 0
BBX 8 14 0 -3
BITMAP
00
00
00
00
00
00
3C
00
00
00
00
00
00
00
ENDCHAR
STARTCHAR char9591
ENCODING 9591
SWIDTH 548 0
DWIDTH 8 0
BBX 8 14 0 -3
BITMAP
00
00
00
00
00
00
08
08
08
08
08
08
08
08
ENDCHAR
STARTCHAR char9592
ENCODING 9592
SWIDTH 548 0
DWIDTH 8 0
BBX 8 14 0 -3
BITMAP
00
00
00
00
00
00
3C
3C
00
00
00
00
00
00
ENDCHAR
STARTCHAR char9593
ENCODING 9593
SWIDTH 548 0
DWIDTH 8 0
BBX 8 14 0 -3
BITMAP
18
18
18
18
18
18
18
00
00
00
00
00
00
00
ENDCHAR
STARTCHAR char9594
ENCODING 9594
SWIDTH 548 0
DWIDTH 8 0
BBX 8 14 0 -3
BITMAP
00
00
00
00
00
00
3C
3C
00
00
00
00
00
00
ENDCHAR
STARTCHAR char9595
ENCODING 9595
SWIDTH 548 0
DWIDTH 8 0
BBX 8 14 0 -3
BITMAP
00
00
00
00
00
00
18
18
18
18
18
18
18
18
ENDCHAR
STARTCHAR char9596
ENCODING 9596
SWIDTH 548 0
DWIDTH 8 0
BBX 8 14 0 -3
BITMAP
00
00
00
00
00
00
FF
0F
00
00
00
00
00
00
ENDCHAR
STARTCHAR char9597
ENCODING 9597
SWIDTH 548 0
DWIDTH 8 0
BBX 8 14 0 -3
BITMAP
08
08
08
08
08
08
18
18
18
18
18
18
18
18
ENDCHAR
STARTCHAR char9598
ENCODING 9598
SWIDTH 548 0
DWIDTH 8 0
BBX 8 14 0 -3
BITMAP
00
00
00
00
00
00
FF
F0
00
00
00
00
00
00
ENDCHAR
STARTCHAR char9599
ENCODING 9599
SWIDTH 548 0
DWIDTH 8 0
BBX 8 14 0 -3
BITMAP
18
18
18
18
18
18
18
08
08
08
08
08
08
08
ENDCHAR
STARTCHAR char9600
ENCODING 9600
SWIDTH 548 0
DWIDTH 8 0
BBX 8 14 0 -3
BITMAP
FF
FF
FF
FF
FF
FF
FF
00
00
00
00
00
00
00
ENDCHAR
STARTCHAR char9601
ENCODING 9601
SWIDTH 548 0
DWIDTH 8 0
BBX 8 14 0 -3
BITMAP
00
00
00
00
00
00
00
00
00
00
00
00
00
FF
ENDCHAR
STARTCHAR char9602
ENCODING 9602
SWIDTH 548 0
DWIDTH 8 0
BBX 8 14 0 -3
BITMAP
00
00
00
00
00
00
00
00
00
00
00
00
FF
FF
ENDCHAR
STARTCHAR char9603
ENCODING 9603
SWIDTH 548 0
DWIDTH 8 0
BBX 8 14 0 -3
BITMAP
00
00
00
00
00
00
00
00
00
00
FF
FF
FF
FF
ENDCHAR
STARTCHAR char9604
ENCODING 9604
SWIDTH 548 0
DWIDTH 8 0
BBX 8 14 0 -3
BITMAP
00
00
00
00
00
00
00
00
FF
FF
FF
FF
FF
FF
ENDCHAR
STARTCHAR char9605
ENCODING 9605
SWIDTH 548 0
DWIDTH 8 0
BBX 8 14 0 -3
BITMAP
00
00
00
00
00
00
FF
FF
FF
FF
FF
FF
FF
FF
ENDCHAR
STARTCHAR char9606
ENCODING 9606
SWIDTH 548 0
DWIDTH 8 0
BBX 8 14 0 -3
BITMAP
00
00
00
00
FF
FF
FF
FF
FF
FF
FF
FF
FF
FF
ENDCHAR
STARTCHAR char9607
ENCODING 9607
SWIDTH 548 0
DWIDTH 8 0
BBX 8 14 0 -3
BITMAP
00
00
FF
FF
FF
FF
FF
FF
FF
FF
FF
FF
FF
FF
ENDCHAR
STARTCHAR char9608
ENCODING 9608
SWIDTH 548 0
DWIDTH 8 0
BBX 8 14 0 -3
BITMAP
FF
FF
FF
FF
FF
FF
FF
FF
FF
FF
FF
FF
FF
FF
ENDCHAR
STARTCHAR char9608
ENCODING 9609
SWIDTH 548 0
DWIDTH 8 0
BBX 8 14 0 -3
BITMAP
7F
7F
7F
7F
7F
7F
7F
7F
7F
7F
7F
7F
7F
7F
ENDCHAR
STARTCHAR char9610
ENCODING 9610
SWIDTH 548 0
DWIDTH 8 0
BBX 8 14 0 -3
BITMAP
7E
7E
7E
7E
7E
7E
7E
7E
7E
7E
7E
7E
7E
7E
ENDCHAR
STARTCHAR char9611
ENCODING 9611
SWIDTH 548 0
DWIDTH 8 0
BBX 8 14 0 -3
BITMAP
3E
3E
3E
3E
3E
3E
3E
3E
3E
3E
3E
3E
3E
3E
ENDCHAR
STARTCHAR char9612
ENCODING 9612
SWIDTH 548 0
DWIDTH 8 0
BBX 8 14 0 -3
BITMAP
3C
3C
3C
3C
3C
3C
3C
3C
3C
3C
3C
3C
3C
3C
ENDCHAR
STARTCHAR char9613
ENCODING 9613
SWIDTH 548 0
DWIDTH 8 0
BBX 8 14 0 -3
BITMAP
1C
1C
1C
1C
1C
1C
1C
1C
1C
1C
1C
1C
1C
1C
ENDCHAR
STARTCHAR char9614
ENCODING 9614
SWIDTH 548 0
DWIDTH 8 0
BBX 8 14 0 -3
BITMAP
18
18
18
18
18
18
18
18
18
18
18
18
18
18
ENDCHAR
STARTCHAR char9615
ENCODING 9615
SWIDTH 548 0
DWIDTH 8 0
BBX 8 14 0 -3
BITMAP
08
08
08
08
08
08
08
08
08
08
08
08
08
08
ENDCHAR
STARTCHAR char9618
ENCODING 9617
SWIDTH 548 0
DWIDTH 8 0
BBX 8 14 0 -3
BITMAP
92
00
24
00
92
00
49
00
24
00
92
00
49
00
ENDCHAR
STARTCHAR char9618
ENCODING 9618
SWIDTH 548 0
DWIDTH 8 0
BBX 8 14 0 -3
BITMAP
AA
55
AA
55
AA
55
AA
55
AA
55
AA
55
AA
55
ENDCHAR
STARTCHAR char9619
ENCODING 9619
SWIDTH 548 0
DWIDTH 8 0
BBX 8 14 0 -3
BITMAP
55
FF
55
FF
55
FF
55
FF
55
FF
55
FF
55
FF
ENDCHAR
STARTCHAR char9620
ENCODING 9620
SWIDTH 548 0
DWIDTH 8 0
BBX 8 14 0 -3
BITMAP
FF
00
00
00
00
00
00
00
00
00
00
00
00
00
ENDCHAR
STARTCHAR char9621
ENCODING 9621
SWIDTH 548 0
DWIDTH 8 0
BBX 8 14 0 -3
BITMAP
08
08
08
08
08
08
08
08
08
08
08
08
08
08
ENDCHAR
STARTCHAR char9632
ENCODING 9632
SWIDTH 548 0
DWIDTH 8 0
BBX 8 14 0 -3
BITMAP
00
00
00
FF
FF
FF
FF
FF
FF
FF
FF
00
00
00
ENDCHAR
STARTCHAR char9633
ENCODING 9633
SWIDTH 548 0
DWIDTH 8 0
BBX 8 14 0 -3
BITMAP
00
00
00
FF
81
81
81
81
81
81
FF
00
00
00
ENDCHAR
STARTCHAR char9634
ENCODING 9634
SWIDTH 548 0
DWIDTH 8 0
BBX 8 14 0 -3
BITMAP
00
00
00
FF
00
00
00
00
00
00
FF
00
00
00
ENDCHAR
STARTCHAR char9635
ENCODING 9635
SWIDTH 548 0
DWIDTH 8 0
BBX 8 14 0 -3
BITMAP
00
00
00
FF
81
BD
BD
BD
BD
81
FF
00
00
00
ENDCHAR
STARTCHAR char9636
ENCODING 9636
SWIDTH 548 0
DWIDTH 8 0
BBX 8 14 0 -3
BITMAP
00
00
00
FF
81
FF
81
81
FF
81
FF
00
00
00
ENDCHAR
STARTCHAR char9637
ENCODING 9637
SWIDTH 548 0
DWIDTH 8 0
BBX 8 14 0 -3
BITMAP
00
00
00
FF
A5
A5
A5
A5
A5
A5
FF
00
00
00
ENDCHAR
STARTCHAR char9637
ENCODING 9638
SWIDTH 548 0
DWIDTH 8 0
BBX 8 14 0 -3
BITMAP
00
00
00
FF
A5
FF
A5
A5
FF
A5
FF
00
00
00
ENDCHAR
STARTCHAR char9639
ENCODING 9639
SWIDTH 548 0
DWIDTH 8 0
BBX 8 14 0 -3
BITMAP
00
00
00
FF
C9
A5
93
C9
A5
93
FF
00
00
00
ENDCHAR
STARTCHAR char9639
ENCODING 9640
SWIDTH 548 0
DWIDTH 8 0
BBX 8 14 0 -3
BITMAP
00
00
00
FF
93
A5
C9
93
A5
C9
FF
00
00
00
ENDCHAR
STARTCHAR char9641
ENCODING 9641
SWIDTH 548 0
DWIDTH 8 0
BBX 8 14 0 -3
BITMAP
00
00
00
FF
AB
D5
AB
D5
AB
D5
FF
00
00
00
ENDCHAR
STARTCHAR char9642
ENCODING 9642
SWIDTH 548 0
DWIDTH 8 0
BBX 8 14 0 -3
BITMAP
00
00
00
3C
3C
3C
3C
3C
3C
3C
3C
00
00
00
ENDCHAR
STARTCHAR char9643
ENCODING 9643
SWIDTH 548 0
DWIDTH 8 0
BBX 8 14 0 -3
BITMAP
00
00
00
3C
3C
3C
3C
3C
3C
3C
00
00
00
00
ENDCHAR
STARTCHAR char9644
ENCODING 9644
SWIDTH 548 0
DWIDTH 8 0
BBX 8 14 0 -3
BITMAP
00
00
00
FF
FF
FF
FF
FF
FF
FF
00
00
00
00
ENDCHAR
STARTCHAR char9645
ENCODING 9645
SWIDTH 548 0
DWIDTH 8 0
BBX 8 14 0 -3
BITMAP
00
00
00
FF
00
00
00
00
00
FF
00
00
00
00
ENDCHAR
STARTCHAR char9646
ENCODING 9646
SWIDTH 548 0
DWIDTH 8 0
BBX 8 14 0 -3
BITMAP
00
7E
7E
7E
7E
7E
7E
7E
7E
7E
7E
7E
7E
00
ENDCHAR
STARTCHAR char9647
ENCODING 9647
SWIDTH 548 0
DWIDTH 8 0
BBX 8 14 0 -3
BITMAP
00
7E
42
42
42
42
42
42
42
42
42
42
7E
00
ENDCHAR
STARTCHAR char9650
ENCODING 9650
SWIDTH 548 0
DWIDTH 8 0
BBX 8 14 0 -3
BITMAP
00
00
00
18
18
3C
3C
7E
7E
C3
81
00
00
00
ENDCHAR
STARTCHAR char9650
ENCODING 9651
SWIDTH 548 0
DWIDTH 8 0
BBX 8 14 0 -3
BITMAP
00
00
00
18
18
24
24
42
7E
C3
81
00
00
00
ENDCHAR
STARTCHAR char9650
ENCODING 9652
SWIDTH 548 0
DWIDTH 8 0
BBX 8 14 0 -3
BITMAP
00
00
00
18
18
3C
3C
7E
7E
C3
81
00
00
00
ENDCHAR
STARTCHAR char9650
ENCODING 9654
SWIDTH 548 0
DWIDTH 8 0
BBX 8 14 0 -3
BITMAP
00
00
00
C0
70
3C
3F
3F
3C
70
C0
00
00
00
ENDCHAR
STARTCHAR char9650
ENCODING 9655
SWIDTH 548 0
DWIDTH 8 0
BBX 8 14 0 -3
BITMAP
00
00
00
C0
70
2C
23
23
2C
70
C0
00
00
00
ENDCHAR
STARTCHAR char9650
ENCODING 9656
SWIDTH 548 0
DWIDTH 8 0
BBX 8 14 0 -3
BITMAP
00
00
00
C0
70
3C
3F
3F
3C
70
C0
00
00
00
ENDCHAR
STARTCHAR char9650
ENCODING 9660
SWIDTH 548 0
DWIDTH 8 0
BBX 8 14 0 -3
BITMAP
00
00
00
81
C3
7E
7E
3C
3C
18
18
00
00
00
ENDCHAR
STARTCHAR char9650
ENCODING 9661
SWIDTH 548 0
DWIDTH 8 0
BBX 8 14 0 -3
BITMAP
00
00
00
81
C3
7E
42
24
24
18
18
00
00
00
ENDCHAR
STARTCHAR char9650
ENCODING 9662
SWIDTH 548 0
DWIDTH 8 0
BBX 8 14 0 -3
BITMAP
00
00
00
81
C3
7E
7E
3C
3C
18
18
00
00
00
ENDCHAR
STARTCHAR char9650
ENCODING 9664
SWIDTH 548 0
DWIDTH 8 0
BBX 8 14 0 -3
BITMAP
00
00
00
03
0E
3C
FC
FC
3C
0E
03
00
00
00
ENDCHAR
STARTCHAR char9650
ENCODING 9665
SWIDTH 548 0
DWIDTH 8 0
BBX 8 14 0 -3
BITMAP
00
00
00
03
0E
34
C4
C4
34
0E
03
00
00
00
ENDCHAR
STARTCHAR char9650
ENCODING 9666
SWIDTH 548 0
DWIDTH 8 0
BBX 8 14 0 -3
BITMAP
00
00
00
03
0E
3C
FC
FC
3C
0E
03
00
00
00
ENDCHAR
STARTCHAR char9671
ENCODING 9670
SWIDTH 548 0
DWIDTH 8 0
BBX 8 14 0 -3
BITMAP
00
00
00
18
3C
7E
FF
FF
7E
3C
18
00
00
00
ENDCHAR
STARTCHAR char9671
ENCODING 9671
SWIDTH 548 0
DWIDTH 8 0
BBX 8 14 0 -3
BITMAP
00
00
00
18
24
42
81
81
42
24
18
00
00
00
ENDCHAR
STARTCHAR char9671
ENCODING 9672
SWIDTH 548 0
DWIDTH 8 0
BBX 8 14 0 -3
BITMAP
00
00
00
18
24
5A
BD
BD
5A
24
18
00
00
00
ENDCHAR
STARTCHAR char9724
ENCODING 9724
SWIDTH 548 0
DWIDTH 8 0
BBX 8 14 0 -3
BITMAP
00
00
00
E7
E7
E7
E0
E0
E7
E7
E7
00
00
00
ENDCHAR
STARTCHAR char9744
ENCODING 9744
SWIDTH 548 0
DWIDTH 8 0
BBX 8 14 0 -3
BITMAP
00
00
00
FF
81
81
81
81
81
81
FF
00
00
00
ENDCHAR
STARTCHAR char9744
ENCODING 9745
SWIDTH 548 0
DWIDTH 8 0
BBX 8 14 0 -3
BITMAP
00
00
00
FF
81
83
85
C9
B1
91
FF
00
00
00
ENDCHAR
STARTCHAR char9744
ENCODING 9746
SWIDTH 548 0
DWIDTH 8 0
BBX 8 14 0 -3
BITMAP
00
00
00
FF
C3
A5
99
99
A5
C3
FF
00
00
00
ENDCHAR
STARTCHAR char9749
ENCODING 9749
SWIDTH 548 0
DWIDTH 8 0
BBX 8 14 0 -3
BITMAP
00
10
30
50
48
B6
CD
FD
FE
FC
78
00
00
00
ENDCHAR
STARTCHAR char9750
ENCODING 9750
SWIDTH 548 0
DWIDTH 8 0
BBX 8 14 0 -3
BITMAP
00
00
00
00
18
18
18
18
18
00
00
00
00
00
ENDCHAR
STARTCHAR char9752
ENCODING 9752
SWIDTH 548 0
DWIDTH 8 0
BBX 8 14 0 -3
BITMAP
00
00
08
1C
1C
08
6B
77
6B
08
10
60
00
00
ENDCHAR
STARTCHAR char59320
ENCODING 9753
SWIDTH 548 0
DWIDTH 8 0
BBX 8 14 0 -3
BITMAP
00
41
13
07
9D
3D
3B
37
2F
7E
C0
02
00
00
ENDCHAR
STARTCHAR char9775
ENCODING 9775
SWIDTH 548 0
DWIDTH 8 0
BBX 8 14 0 -3
BITMAP
00
00
00
3C
4A
C9
F1
ED
ED
72
3C
00
00
00
ENDCHAR
STARTCHAR char9776
ENCODING 9776
SWIDTH 548 0
DWIDTH 8 0
BBX 8 14 0 -3
BITMAP
00
00
FF
FF
00
00
FF
FF
00
00
FF
FF
00
00
ENDCHAR
STARTCHAR char9776
ENCODING 9777
SWIDTH 548 0
DWIDTH 8 0
BBX 8 14 0 -3
BITMAP
00
00
E7
E7
00
00
FF
FF
00
00
FF
FF
00
00
ENDCHAR
STARTCHAR char9776
ENCODING 9778
SWIDTH 548 0
DWIDTH 8 0
BBX 8 14 0 -3
BITMAP
00
00
FF
FF
00
00
E7
E7
00
00
FF
FF
00
00
ENDCHAR
STARTCHAR char9776
ENCODING 9779
SWIDTH 548 0
DWIDTH 8 0
BBX 8 14 0 -3
BITMAP
00
00
E7
E7
00
00
E7
E7
00
00
FF
FF
00
00
ENDCHAR
STARTCHAR char9776
ENCODING 9780
SWIDTH 548 0
DWIDTH 8 0
BBX 8 14 0 -3
BITMAP
00
00
FF
FF
00
00
FF
FF
00
00
E7
E7
00
00
ENDCHAR
STARTCHAR char9776
ENCODING 9781
SWIDTH 548 0
DWIDTH 8 0
BBX 8 14 0 -3
BITMAP
00
00
E7
E7
00
00
FF
FF
00
00
E7
E7
00
00
ENDCHAR
STARTCHAR char9776
ENCODING 9782
SWIDTH 548 0
DWIDTH 8 0
BBX 8 14 0 -3
BITMAP
00
00
FF
FF
00
00
E7
E7
00
00
E7
E7
00
00
ENDCHAR
STARTCHAR char9776
ENCODING 9783
SWIDTH 548 0
DWIDTH 8 0
BBX 8 14 0 -3
BITMAP
00
00
E7
E7
00
00
E7
E7
00
00
E7
E7
00
00
ENDCHAR
STARTCHAR char9784
ENCODING 9784
SWIDTH 548 0
DWIDTH 8 0
BBX 8 14 0 -3
BITMAP
00
00
00
99
7E
7E
E7
E7
7E
7E
99
00
00
00
ENDCHAR
STARTCHAR char9785
ENCODING 9785
SWIDTH 548 0
DWIDTH 8 0
BBX 8 14 0 -3
BITMAP
00
00
00
7E
81
A5
81
BD
A5
81
7E
00
00
00
ENDCHAR
STARTCHAR char9785
ENCODING 9786
SWIDTH 548 0
DWIDTH 8 0
BBX 8 14 0 -3
BITMAP
00
00
00
7E
81
A5
81
A5
BD
81
7E
00
00
00
ENDCHAR
STARTCHAR char9785
ENCODING 9787
SWIDTH 548 0
DWIDTH 8 0
BBX 8 14 0 -3
BITMAP
00
00
00
7E
FF
DB
FF
DB
C3
FF
7E
00
00
00
ENDCHAR
STARTCHAR char9788
ENCODING 9788
SWIDTH 548 0
DWIDTH 8 0
BBX 8 14 0 -3
BITMAP
00
00
18
42
24
18
E7
18
24
42
18
00
00
00
ENDCHAR
STARTCHAR char9798
ENCODING 9798
SWIDTH 548 0
DWIDTH 8 0
BBX 8 14 0 -3
BITMAP
00
00
10
54
D6
54
54
38
10
7C
10
10
00
00
ENDCHAR
STARTCHAR char9824
ENCODING 9824
SWIDTH 548 0
DWIDTH 8 0
BBX 8 14 0 -3
BITMAP
00
00
18
18
3C
7E
FF
FF
7E
18
3C
7E
00
00
ENDCHAR
STARTCHAR char9825
ENCODING 9825
SWIDTH 548 0
DWIDTH 8 0
BBX 8 14 0 -3
BITMAP
00
00
00
66
99
81
81
81
42
24
18
00
00
00
ENDCHAR
STARTCHAR char9826
ENCODING 9826
SWIDTH 548 0
DWIDTH 8 0
BBX 8 14 0 -3
BITMAP
00
00
00
18
24
42
81
81
42
24
18
00
00
00
ENDCHAR
STARTCHAR char9827
ENCODING 9827
SWIDTH 548 0
DWIDTH 8 0
BBX 8 14 0 -3
BITMAP
00
00
00
18
3C
18
DB
FF
DB
18
3C
00
00
00
ENDCHAR
STARTCHAR char9824
ENCODING 9828
SWIDTH 548 0
DWIDTH 8 0
BBX 8 14 0 -3
BITMAP
00
00
18
18
24
42
81
81
7E
18
24
7E
00
00
ENDCHAR
STARTCHAR char9825
ENCODING 9829
SWIDTH 548 0
DWIDTH 8 0
BBX 8 14 0 -3
BITMAP
00
00
00
66
FF
FF
FF
FF
7E
3C
18
00
00
00
ENDCHAR
STARTCHAR char9826
ENCODING 9830
SWIDTH 548 0
DWIDTH 8 0
BBX 8 14 0 -3
BITMAP
00
00
00
18
3C
7E
FF
FF
7E
3C
18
00
00
00
ENDCHAR
STARTCHAR char9827
ENCODING 9831
SWIDTH 548 0
DWIDTH 8 0
BBX 8 14 0 -3
BITMAP
00
00
00
18
24
18
DB
BD
DB
18
3C
00
00
00
ENDCHAR
STARTCHAR char9833
ENCODING 9833
SWIDTH 548 0
DWIDTH 8 0
BBX 8 14 0 -3
BITMAP
00
00
00
08
08
08
08
08
08
38
38
00
00
00
ENDCHAR
STARTCHAR char9833
ENCODING 9834
SWIDTH 548 0
DWIDTH 8 0
BBX 8 14 0 -3
BITMAP
00
00
00
08
0C
0A
0A
0E
08
38
38
00
00
00
ENDCHAR
STARTCHAR char9835
ENCODING 9835
SWIDTH 548 0
DWIDTH 8 0
BBX 8 14 0 -3
BITMAP
00
00
00
3F
21
21
21
21
21
E7
E7
00
00
00
ENDCHAR
STARTCHAR char9835
ENCODING 9836
SWIDTH 548 0
DWIDTH 8 0
BBX 8 14 0 -3
BITMAP
00
00
00
3F
3F
21
3F
21
21
E7
E7
00
00
00
ENDCHAR
STARTCHAR char9837
ENCODING 9837
SWIDTH 548 0
DWIDTH 8 0
BBX 8 14 0 -3
BITMAP
00
00
00
10
10
10
1C
12
14
18
10
00
00
00
ENDCHAR
STARTCHAR char9835
ENCODING 9838
SWIDTH 548 0
DWIDTH 8 0
BBX 8 14 0 -3
BITMAP
00
00
00
3F
3F
21
21
21
21
E7
E7
00
00
00
ENDCHAR
STARTCHAR char9839
ENCODING 9839
SWIDTH 548 0
DWIDTH 8 0
BBX 8 14 0 -3
BITMAP
00
00
00
44
66
76
74
64
44
1C
1C
00
00
00
ENDCHAR
STARTCHAR char9864
ENCODING 9864
SWIDTH 548 0
DWIDTH 8 0
BBX 8 14 0 -3
BITMAP
00
00
00
3C
6E
F8
F0
F0
F8
7E
3C
00
00
00
ENDCHAR
STARTCHAR char9875
ENCODING 9875
SWIDTH 548 0
DWIDTH 8 0
BBX 8 14 0 -3
BITMAP
00
18
24
18
18
3C
99
DB
99
5A
3C
00
00
00
ENDCHAR
STARTCHAR char9876
ENCODING 9876
SWIDTH 548 0
DWIDTH 8 0
BBX 8 14 0 -3
BITMAP
00
00
00
81
42
24
18
18
E7
66
A5
00
00
00
ENDCHAR
STARTCHAR char9984
ENCODING 9984
SWIDTH 548 0
DWIDTH 8 0
BBX 8 14 0 -3
BITMAP
00
42
42
24
3C
18
3C
66
99
99
66
00
00
00
ENDCHAR
STARTCHAR char9992
ENCODING 9992
SWIDTH 548 0
DWIDTH 8 0
BBX 8 14 0 -3
BITMAP
00
00
00
10
88
4C
7F
4C
88
10
00
00
00
00
ENDCHAR
STARTCHAR char9993
ENCODING 9993
SWIDTH 548 0
DWIDTH 8 0
BBX 8 14 0 -3
BITMAP
00
00
00
00
FF
BD
DB
E7
FF
FF
FF
00
00
00
ENDCHAR
STARTCHAR char10004
ENCODING 10003
SWIDTH 548 0
DWIDTH 8 0
BBX 8 14 0 -3
BITMAP
00
00
00
01
02
04
84
48
38
10
10
00
00
00
ENDCHAR
STARTCHAR char10004
ENCODING 10004
SWIDTH 548 0
DWIDTH 8 0
BBX 8 14 0 -3
BITMAP
00
00
00
01
02
04
CC
78
38
30
10
00
00
00
ENDCHAR
STARTCHAR char10005
ENCODING 10005
SWIDTH 548 0
DWIDTH 8 0
BBX 8 14 0 -3
BITMAP
00
00
00
00
42
24
18
18
24
42
00
00
00
00
ENDCHAR
STARTCHAR char10005
ENCODING 10006
SWIDTH 548 0
DWIDTH 8 0
BBX 8 14 0 -3
BITMAP
00
00
00
42
66
3C
18
3C
66
42
00
00
00
00
ENDCHAR
STARTCHAR char10008
ENCODING 10007
SWIDTH 548 0
DWIDTH 8 0
BBX 8 14 0 -3
BITMAP
00
00
80
43
24
18
10
28
44
83
80
00
00
00
ENDCHAR
STARTCHAR char10008
ENCODING 10008
SWIDTH 548 0
DWIDTH 8 0
BBX 8 14 0 -3
BITMAP
00
00
80
47
6E
38
30
78
4E
87
80
00
00
00
ENDCHAR
STARTCHAR char10070
ENCODING 10070
SWIDTH 548 0
DWIDTH 8 0
BBX 8 14 0 -3
BITMAP
00
00
18
3C
18
42
E7
E7
42
18
3C
18
00
00
ENDCHAR
STARTCHAR char10092
ENCODING 10092
SWIDTH 548 0
DWIDTH 8 0
BBX 8 14 0 -3
BITMAP
00
00
00
00
08
10
20
20
10
08
00
00
00
00
ENDCHAR
STARTCHAR char10092
ENCODING 10093
SWIDTH 548 0
DWIDTH 8 0
BBX 8 14 0 -3
BITMAP
00
00
00
00
10
08
04
04
08
10
00
00
00
00
ENDCHAR
STARTCHAR char10144
ENCODING 10144
SWIDTH 548 0
DWIDTH 8 0
BBX 8 14 0 -3
BITMAP
00
00
00
08
0C
AE
AF
AF
AE
0C
08
00
00
00
ENDCHAR
STARTCHAR char10205
ENCODING 10205
SWIDTH 548 0
DWIDTH 8 0
BBX 8 14 0 -3
BITMAP
F0
F0
F0
F0
FE
FF
FF
FF
FF
FE
F0
F0
F0
F0
ENDCHAR
STARTCHAR char10205
ENCODING 10206
SWIDTH 548 0
DWIDTH 8 0
BBX 8 14 0 -3
BITMAP
0F
0F
0F
0F
7F
FF
FF
FF
FF
7F
0F
0F
0F
0F
ENDCHAR
STARTCHAR char10213
ENCODING 10212
SWIDTH 548 0
DWIDTH 8 0
BBX 8 14 0 -3
BITMAP
0F
0F
FF
FF
FF
FF
0F
0F
FF
FF
FF
FF
0F
0F
ENDCHAR
STARTCHAR char10213
ENCODING 10213
SWIDTH 548 0
DWIDTH 8 0
BBX 8 14 0 -3
BITMAP
F0
F0
FF
FF
FF
FF
F0
F0
FF
FF
FF
FF
F0
F0
ENDCHAR
STARTCHAR char10216
ENCODING 10216
SWIDTH 548 0
DWIDTH 8 0
BBX 8 14 0 -3
BITMAP
00
08
08
08
10
10
20
20
10
10
08
08
08
00
ENDCHAR
STARTCHAR char10216
ENCODING 10217
SWIDTH 548 0
DWIDTH 8 0
BBX 8 14 0 -3
BITMAP
00
10
10
10
08
08
04
04
08
08
10
10
10
00
ENDCHAR
STARTCHAR char10624
ENCODING 10624
SWIDTH 548 0
DWIDTH 8 0
BBX 8 14 0 -3
BITMAP
00
00
00
81
81
A5
A5
A5
A5
81
81
00
00
00
ENDCHAR
STARTCHAR char9671
ENCODING 10686
SWIDTH 548 0
DWIDTH 8 0
BBX 8 14 0 -3
BITMAP
00
00
00
18
24
5A
A5
A5
5A
24
18
00
00
00
ENDCHAR
STARTCHAR char9671
ENCODING 10687
SWIDTH 548 0
DWIDTH 8 0
BBX 8 14 0 -3
BITMAP
00
00
00
18
24
5A
BD
BD
5A
24
18
00
00
00
ENDCHAR
STARTCHAR char58915
ENCODING 11088
SWIDTH 548 0
DWIDTH 8 0
BBX 8 14 0 -3
BITMAP
00
00
10
10
18
34
E7
24
7E
66
81
00
00
00
ENDCHAR
STARTCHAR char11103
ENCODING 11103
SWIDTH 548 0
DWIDTH 8 0
BBX 8 14 0 -3
BITMAP
00
54
00
54
00
54
00
54
00
54
00
54
00
00
ENDCHAR
STARTCHAR char57504
ENCODING 11104
SWIDTH 548 0
DWIDTH 8 0
BBX 8 14 0 -3
BITMAP
00
60
60
64
6E
64
64
64
48
30
60
60
60
00
ENDCHAR
STARTCHAR char57505
ENCODING 11105
SWIDTH 548 0
DWIDTH 8 0
BBX 8 14 0 -3
BITMAP
00
00
60
60
60
60
7C
00
64
74
6C
6C
6C
00
ENDCHAR
STARTCHAR char11107
ENCODING 11106
SWIDTH 548 0
DWIDTH 8 0
BBX 8 14 0 -3
BITMAP
00
00
3E
40
46
46
40
46
44
44
44
38
00
00
ENDCHAR
STARTCHAR char11107
ENCODING 11107
SWIDTH 548 0
DWIDTH 8 0
BBX 8 14 0 -3
BITMAP
00
00
3E
01
41
46
44
44
44
44
44
38
00
00
ENDCHAR
STARTCHAR char57506
ENCODING 11108
SWIDTH 548 0
DWIDTH 8 0
BBX 8 14 0 -3
BITMAP
00
00
18
24
24
24
7E
7E
66
66
7E
3C
00
00
ENDCHAR
STARTCHAR char57505
ENCODING 11109
SWIDTH 548 0
DWIDTH 8 0
BBX 8 14 0 -3
BITMAP
00
00
7C
60
60
60
7C
00
64
74
6C
6C
6C
00
ENDCHAR
STARTCHAR char11116
ENCODING 11116
SWIDTH 548 0
DWIDTH 8 0
BBX 8 14 0 -3
BITMAP
00
00
00
00
7E
00
08
08
7E
08
08
00
00
00
ENDCHAR
STARTCHAR char11136
ENCODING 11136
SWIDTH 548 0
DWIDTH 8 0
BBX 8 14 0 -3
BITMAP
80
C0
E0
F0
F8
FC
FE
FE
FC
F8
F0
E0
C0
80
ENDCHAR
STARTCHAR char11137
ENCODING 11137
SWIDTH 548 0
DWIDTH 8 0
BBX 8 14 0 -3
BITMAP
80
40
20
10
08
04
02
02
04
08
10
20
40
80
ENDCHAR
STARTCHAR char11138
ENCODING 11138
SWIDTH 548 0
DWIDTH 8 0
BBX 8 14 0 -3
BITMAP
01
03
07
0F
1F
3F
7F
7F
3F
1F
0F
07
03
01
ENDCHAR
STARTCHAR char11139
ENCODING 11139
SWIDTH 548 0
DWIDTH 8 0
BBX 8 14 0 -3
BITMAP
01
02
04
08
10
20
40
40
20
10
08
04
02
01
ENDCHAR
STARTCHAR char42240
ENCODING 42240
SWIDTH 548 0
DWIDTH 8 0
BBX 8 14 0 -3
BITMAP
00
18
99
81
C3
42
42
66
24
3C
18
18
00
00
ENDCHAR
STARTCHAR char42241
ENCODING 42241
SWIDTH 548 0
DWIDTH 8 0
BBX 8 14 0 -3
BITMAP
00
0C
13
13
7E
DB
FF
DB
E7
7E
3C
00
00
00
ENDCHAR
STARTCHAR char42242
ENCODING 42242
SWIDTH 548 0
DWIDTH 8 0
BBX 8 14 0 -3
BITMAP
00
00
06
09
09
8F
CE
FC
7C
24
24
18
00
00
ENDCHAR
STARTCHAR char42243
ENCODING 42243
SWIDTH 548 0
DWIDTH 8 0
BBX 8 14 0 -3
BITMAP
00
00
00
37
4F
8F
96
29
51
A2
CC
00
00
00
ENDCHAR
STARTCHAR char42244
ENCODING 42244
SWIDTH 548 0
DWIDTH 8 0
BBX 8 14 0 -3
BITMAP
00
00
FF
81
FF
A9
AD
A1
BF
A1
FF
00
00
00
ENDCHAR
STARTCHAR char115
ENCODING 42245
SWIDTH 548 0
DWIDTH 8 0
BBX 8 14 0 -3
BITMAP
00
00
3E
40
40
7E
02
02
7C
00
AA
55
00
00
ENDCHAR
STARTCHAR char57354
ENCODING 57354
SWIDTH 548 0
DWIDTH 8 0
BBX 8 14 0 -3
BITMAP
00
00
00
3E
1C
18
3F
26
4C
88
10
20
00
00
ENDCHAR
STARTCHAR char57366
ENCODING 57366
SWIDTH 548 0
DWIDTH 8 0
BBX 8 14 0 -3
BITMAP
08
08
08
08
08
08
08
08
08
08
08
08
08
08
ENDCHAR
STARTCHAR char57504
ENCODING 57504
SWIDTH 548 0
DWIDTH 8 0
BBX 8 14 0 -3
BITMAP
00
60
60
64
6E
64
64
64
48
30
60
60
60
00
ENDCHAR
STARTCHAR char57505
ENCODING 57505
SWIDTH 548 0
DWIDTH 8 0
BBX 8 14 0 -3
BITMAP
00
00
60
60
60
60
7C
00
64
74
6C
6C
6C
00
ENDCHAR
STARTCHAR char57506
ENCODING 57506
SWIDTH 548 0
DWIDTH 8 0
BBX 8 14 0 -3
BITMAP
00
00
18
24
24
24
7E
7E
66
66
7E
3C
00
00
ENDCHAR
STARTCHAR char57505
ENCODING 57507
SWIDTH 548 0
DWIDTH 8 0
BBX 8 14 0 -3
BITMAP
00
00
7C
60
60
60
7C
00
64
74
6C
6C
6C
00
ENDCHAR
STARTCHAR char57509
ENCODING 57509
SWIDTH 548 0
DWIDTH 8 0
BBX 8 14 0 -3
BITMAP
00
00
00
FF
A5
A5
A5
FF
99
99
FF
00
00
00
ENDCHAR
STARTCHAR char57509
ENCODING 57510
SWIDTH 548 0
DWIDTH 8 0
BBX 8 14 0 -3
BITMAP
00
00
00
FF
91
9F
F1
F1
9F
91
FF
00
00
00
ENDCHAR
STARTCHAR char57511
ENCODING 57511
SWIDTH 548 0
DWIDTH 8 0
BBX 8 14 0 -3
BITMAP
00
00
00
FE
82
BF
A1
A1
A1
E1
3F
00
00
00
ENDCHAR
STARTCHAR char57512
ENCODING 57512
SWIDTH 548 0
DWIDTH 8 0
BBX 8 14 0 -3
BITMAP
00
00
00
E7
C3
A5
18
18
A5
C3
E7
00
00
00
ENDCHAR
STARTCHAR char57513
ENCODING 57513
SWIDTH 548 0
DWIDTH 8 0
BBX 8 14 0 -3
BITMAP
00
00
00
F3
F3
03
03
C0
C0
CF
CF
00
00
00
ENDCHAR
STARTCHAR char57514
ENCODING 57514
SWIDTH 548 0
DWIDTH 8 0
BBX 8 14 0 -3
BITMAP
00
00
00
FF
81
81
81
FF
85
85
FF
00
00
00
ENDCHAR
STARTCHAR char57514
ENCODING 57515
SWIDTH 548 0
DWIDTH 8 0
BBX 8 14 0 -3
BITMAP
00
00
00
FF
91
91
91
91
F1
91
FF
00
00
00
ENDCHAR
STARTCHAR char57514
ENCODING 57516
SWIDTH 548 0
DWIDTH 8 0
BBX 8 14 0 -3
BITMAP
00
00
00
FF
89
89
89
89
8F
89
FF
00
00
00
ENDCHAR
STARTCHAR char57520
ENCODING 57520
SWIDTH 548 0
DWIDTH 8 0
BBX 8 14 0 -3
BITMAP
80
C0
E0
F0
F8
FC
FE
FE
FC
F8
F0
E0
C0
80
ENDCHAR
STARTCHAR char57521
ENCODING 57521
SWIDTH 548 0
DWIDTH 8 0
BBX 8 14 0 -3
BITMAP
80
40
20
10
08
04
02
02
04
08
10
20
40
80
ENDCHAR
STARTCHAR char57522
ENCODING 57522
SWIDTH 548 0
DWIDTH 8 0
BBX 8 14 0 -3
BITMAP
01
03
07
0F
1F
3F
7F
7F
3F
1F
0F
07
03
01
ENDCHAR
STARTCHAR char57523
ENCODING 57523
SWIDTH 548 0
DWIDTH 8 0
BBX 8 14 0 -3
BITMAP
01
02
04
08
10
20
40
40
20
10
08
04
02
01
ENDCHAR
STARTCHAR char57871
ENCODING 57871
SWIDTH 548 0
DWIDTH 8 0
BBX 8 14 0 -3
BITMAP
00
00
00
31
12
94
F8
1C
6E
E7
C3
00
00
00
ENDCHAR
STARTCHAR char57905
ENCODING 57905
SWIDTH 548 0
DWIDTH 8 0
BBX 8 14 0 -3
BITMAP
00
00
3C
7E
5A
7E
66
3C
24
81
7E
C3
00
00
ENDCHAR
STARTCHAR char57920
ENCODING 57920
SWIDTH 548 0
DWIDTH 8 0
BBX 8 14 0 -3
BITMAP
00
00
00
FC
AE
8F
FF
C3
C3
C3
FF
00
00
00
ENDCHAR
STARTCHAR char59192
ENCODING 57942
SWIDTH 548 0
DWIDTH 8 0
BBX 8 14 0 -3
BITMAP
00
08
08
14
24
08
42
7E
3C
81
7E
00
00
00
ENDCHAR
STARTCHAR char62575
ENCODING 57961
SWIDTH 548 0
DWIDTH 8 0
BBX 8 14 0 -3
BITMAP
00
00
00
66
BD
7E
BD
BD
66
42
24
00
00
00
ENDCHAR
STARTCHAR char58133
ENCODING 58133
SWIDTH 548 0
DWIDTH 8 0
BBX 8 14 0 -3
BITMAP
00
00
1E
0C
18
7F
92
24
4F
92
24
08
00
00
ENDCHAR
STARTCHAR char62151
ENCODING 58190
SWIDTH 548 0
DWIDTH 8 0
BBX 8 14 0 -3
BITMAP
00
00
20
07
49
11
62
84
88
C8
70
00
00
00
ENDCHAR
STARTCHAR char62151
ENCODING 58192
SWIDTH 548 0
DWIDTH 8 0
BBX 8 14 0 -3
BITMAP
00
00
20
07
49
11
72
FC
F8
F8
70
00
00
00
ENDCHAR
STARTCHAR char61724
ENCODING 58205
SWIDTH 548 0
DWIDTH 8 0
BBX 8 14 0 -3
BITMAP
00
00
00
BD
BD
00
DB
DB
00
3C
3C
00
00
00
ENDCHAR
STARTCHAR char58218
ENCODING 58218
SWIDTH 548 0
DWIDTH 8 0
BBX 8 14 0 -3
BITMAP
00
02
0C
19
3A
76
FD
9E
8E
CC
78
00
00
00
ENDCHAR
STARTCHAR char62594
ENCODING 58875
SWIDTH 548 0
DWIDTH 8 0
BBX 8 14 0 -3
BITMAP
00
00
00
B0
B8
AF
AF
DF
BF
BF
00
00
00
00
ENDCHAR
STARTCHAR char62594
ENCODING 58878
SWIDTH 548 0
DWIDTH 8 0
BBX 8 14 0 -3
BITMAP
00
00
00
F0
88
8F
81
9F
FF
FF
00
00
00
00
ENDCHAR
STARTCHAR char62594
ENCODING 58879
SWIDTH 548 0
DWIDTH 8 0
BBX 8 14 0 -3
BITMAP
00
00
00
F0
88
9F
FF
FF
FF
FF
00
00
00
00
ENDCHAR
STARTCHAR char58881
ENCODING 58881
SWIDTH 548 0
DWIDTH 8 0
BBX 8 14 0 -3
BITMAP
00
FF
00
FC
00
FE
00
F8
00
FF
00
FC
00
00
ENDCHAR
STARTCHAR char59281
ENCODING 58885
SWIDTH 548 0
DWIDTH 8 0
BBX 8 14 0 -3
BITMAP
00
00
00
07
0B
17
29
5B
A7
ED
FF
00
00
00
ENDCHAR
STARTCHAR char58886
ENCODING 58886
SWIDTH 548 0
DWIDTH 8 0
BBX 8 14 0 -3
BITMAP
00
00
3C
64
7D
F9
C3
9F
BE
26
3C
00
00
00
ENDCHAR
STARTCHAR char58888
ENCODING 58888
SWIDTH 548 0
DWIDTH 8 0
BBX 8 14 0 -3
BITMAP
00
00
00
60
50
56
65
45
7E
44
44
04
00
00
ENDCHAR
STARTCHAR char58889
ENCODING 58889
SWIDTH 548 0
DWIDTH 8 0
BBX 8 14 0 -3
BITMAP
00
00
00
3C
3C
3C
3C
FF
7E
3C
18
00
00
00
ENDCHAR
STARTCHAR char58890
ENCODING 58890
SWIDTH 548 0
DWIDTH 8 0
BBX 8 14 0 -3
BITMAP
00
00
70
9C
9A
7A
34
24
EC
24
EC
00
00
00
ENDCHAR
STARTCHAR char58891
ENCODING 58891
SWIDTH 548 0
DWIDTH 8 0
BBX 8 14 0 -3
BITMAP
00
00
24
42
42
42
81
42
42
42
24
00
00
00
ENDCHAR
STARTCHAR char58892
ENCODING 58892
SWIDTH 548 0
DWIDTH 8 0
BBX 8 14 0 -3
BITMAP
00
00
00
27
28
28
2F
21
21
CE
00
00
00
00
ENDCHAR
STARTCHAR char58893
ENCODING 58893
SWIDTH 548 0
DWIDTH 8 0
BBX 8 14 0 -3
BITMAP
00
00
00
FE
82
BF
A1
AB
AD
FD
3F
00
00
00
ENDCHAR
STARTCHAR char58894
ENCODING 58894
SWIDTH 548 0
DWIDTH 8 0
BBX 8 14 0 -3
BITMAP
00
00
00
24
66
C3
81
81
C3
66
24
00
00
00
ENDCHAR
STARTCHAR char58898
ENCODING 58898
SWIDTH 548 0
DWIDTH 8 0
BBX 8 14 0 -3
BITMAP
00
00
3E
08
EB
08
6B
08
EB
00
7F
00
00
00
ENDCHAR
STARTCHAR char35
ENCODING 58900
SWIDTH 548 0
DWIDTH 8 0
BBX 8 14 0 -3
BITMAP
00
00
00
24
24
7E
24
24
7E
24
24
00
00
00
ENDCHAR
STARTCHAR char58901
ENCODING 58901
SWIDTH 548 0
DWIDTH 8 0
BBX 8 14 0 -3
BITMAP
00
00
10
66
4D
D8
D8
D8
4D
66
10
00
00
00
ENDCHAR
STARTCHAR char58905
ENCODING 58905
SWIDTH 548 0
DWIDTH 8 0
BBX 8 14 0 -3
BITMAP
00
00
00
F0
08
E4
12
C9
25
95
D5
00
00
00
ENDCHAR
STARTCHAR char58910
ENCODING 58909
SWIDTH 548 0
DWIDTH 8 0
BBX 8 14 0 -3
BITMAP
00
00
00
3C
7E
E7
DD
D8
E5
7E
3C
00
00
00
ENDCHAR
STARTCHAR char58910
ENCODING 58910
SWIDTH 548 0
DWIDTH 8 0
BBX 8 14 0 -3
BITMAP
00
00
00
3C
7E
E7
DF
DF
E7
7E
3C
00
00
00
ENDCHAR
STARTCHAR char58911
ENCODING 58911
SWIDTH 548 0
DWIDTH 8 0
BBX 8 14 0 -3
BITMAP
00
00
00
80
40
AF
50
2B
2C
52
A1
00
00
00
ENDCHAR
STARTCHAR char58912
ENCODING 58912
SWIDTH 548 0
DWIDTH 8 0
BBX 8 14 0 -3
BITMAP
00
00
00
3B
73
B0
B9
BF
9F
42
3C
00
00
00
ENDCHAR
STARTCHAR char58913
ENCODING 58913
SWIDTH 548 0
DWIDTH 8 0
BBX 8 14 0 -3
BITMAP
00
08
00
08
00
08
00
08
00
08
00
08
00
08
ENDCHAR
STARTCHAR char58915
ENCODING 58915
SWIDTH 548 0
DWIDTH 8 0
BBX 8 14 0 -3
BITMAP
00
00
10
18
18
3C
FF
3C
7E
66
81
00
00
00
ENDCHAR
STARTCHAR char58919
ENCODING 58919
SWIDTH 548 0
DWIDTH 8 0
BBX 8 14 0 -3
BITMAP
00
00
00
3C
7E
5A
7E
FF
66
7E
7E
00
00
00
ENDCHAR
STARTCHAR char61818
ENCODING 58922
SWIDTH 548 0
DWIDTH 8 0
BBX 8 14 0 -3
BITMAP
00
00
00
E7
E7
E7
00
00
E7
E7
E7
00
00
00
ENDCHAR
STARTCHAR char59333
ENCODING 58923
SWIDTH 548 0
DWIDTH 8 0
BBX 8 14 0 -3
BITMAP
00
00
00
DF
CE
CC
D8
F7
ED
D5
95
00
00
00
ENDCHAR
STARTCHAR char62578
ENCODING 59142
SWIDTH 548 0
DWIDTH 8 0
BBX 8 14 0 -3
BITMAP
00
00
3C
42
99
99
42
BD
42
BD
42
3C
00
00
ENDCHAR
STARTCHAR char61818
ENCODING 59151
SWIDTH 548 0
DWIDTH 8 0
BBX 8 14 0 -3
BITMAP
00
00
00
E7
E7
E7
00
00
E7
E7
E7
00
00
00
ENDCHAR
STARTCHAR char62234
ENCODING 59154
SWIDTH 548 0
DWIDTH 8 0
BBX 8 14 0 -3
BITMAP
00
00
18
2C
2C
3E
27
67
43
C2
BE
6C
00
00
ENDCHAR
STARTCHAR char59176
ENCODING 59176
SWIDTH 548 0
DWIDTH 8 0
BBX 8 14 0 -3
BITMAP
00
00
00
08
10
BF
11
89
91
88
FD
08
10
00
ENDCHAR
STARTCHAR char59192
ENCODING 59192
SWIDTH 548 0
DWIDTH 8 0
BBX 8 14 0 -3
BITMAP
00
08
08
14
24
08
42
7E
3C
81
7E
00
00
00
ENDCHAR
STARTCHAR char59281
ENCODING 59193
SWIDTH 548 0
DWIDTH 8 0
BBX 8 14 0 -3
BITMAP
00
00
00
07
0B
17
29
5B
A7
ED
FF
00
00
00
ENDCHAR
STARTCHAR char59203
ENCODING 59203
SWIDTH 548 0
DWIDTH 8 0
BBX 8 14 0 -3
BITMAP
00
00
00
1C
5E
C4
DB
DB
E7
76
2C
00
00
00
ENDCHAR
STARTCHAR char59205
ENCODING 59205
SWIDTH 548 0
DWIDTH 8 0
BBX 8 14 0 -3
BITMAP
00
00
00
3C
5E
8B
9D
9D
89
42
3C
00
00
00
ENDCHAR
STARTCHAR char59241
ENCODING 59241
SWIDTH 548 0
DWIDTH 8 0
BBX 8 14 0 -3
BITMAP
00
00
18
3C
FE
FF
7F
35
25
24
EC
00
00
00
ENDCHAR
STARTCHAR char62214
ENCODING 59261
SWIDTH 548 0
DWIDTH 8 0
BBX 8 14 0 -3
BITMAP
00
00
3E
63
D9
BD
B5
A1
B3
9E
40
20
10
00
ENDCHAR
STARTCHAR char59264
ENCODING 59264
SWIDTH 548 0
DWIDTH 8 0
BBX 8 14 0 -3
BITMAP
00
00
10
10
3A
7A
DF
EB
AB
C7
4E
48
00
00
ENDCHAR
STARTCHAR char59281
ENCODING 59281
SWIDTH 548 0
DWIDTH 8 0
BBX 8 14 0 -3
BITMAP
00
00
00
07
0B
17
29
5B
A7
ED
FF
00
00
00
ENDCHAR
STARTCHAR char59285
ENCODING 59285
SWIDTH 548 0
DWIDTH 8 0
BBX 8 14 0 -3
BITMAP
00
00
00
FF
BF
DF
BF
FF
E3
FF
FF
00
00
00
ENDCHAR
STARTCHAR char61603
ENCODING 59289
SWIDTH 548 0
DWIDTH 8 0
BBX 8 14 0 -3
BITMAP
00
00
00
8B
DE
7C
E6
67
3E
7B
D1
00
00
00
ENDCHAR
STARTCHAR char59320
ENCODING 59320
SWIDTH 548 0
DWIDTH 8 0
BBX 8 14 0 -3
BITMAP
00
01
01
03
0F
1D
3B
36
2E
7C
C0
00
00
00
ENDCHAR
STARTCHAR char59320
ENCODING 59332
SWIDTH 548 0
DWIDTH 8 0
BBX 8 14 0 -3
BITMAP
00
01
01
03
0F
1D
3B
36
2E
7C
C0
00
00
00
ENDCHAR
STARTCHAR char59333
ENCODING 59333
SWIDTH 548 0
DWIDTH 8 0
BBX 8 14 0 -3
BITMAP
00
00
00
DF
CE
CC
D8
F7
ED
D5
95
00
00
00
ENDCHAR
STARTCHAR char61440
ENCODING 61440
SWIDTH 548 0
DWIDTH 8 0
BBX 8 14 0 -3
BITMAP
00
00
00
3F
3F
21
21
21
21
E7
E7
00
00
00
ENDCHAR
STARTCHAR char61440
ENCODING 61441
SWIDTH 548 0
DWIDTH 8 0
BBX 8 14 0 -3
BITMAP
00
00
00
3F
3F
21
21
21
21
E7
E7
00
00
00
ENDCHAR
STARTCHAR char61440
ENCODING 61442
SWIDTH 548 0
DWIDTH 8 0
BBX 8 14 0 -3
BITMAP
00
00
00
3F
3F
21
21
21
21
E7
E7
00
00
00
ENDCHAR
STARTCHAR char61440
ENCODING 61443
SWIDTH 548 0
DWIDTH 8 0
BBX 8 14 0 -3
BITMAP
00
00
00
3F
3F
21
21
21
21
E7
E7
00
00
00
ENDCHAR
STARTCHAR char9193
ENCODING 61448
SWIDTH 548 0
DWIDTH 8 0
BBX 8 14 0 -3
BITMAP
00
00
00
C8
CC
CE
CF
CF
CE
CC
C8
00
00
00
ENDCHAR
STARTCHAR char61485
ENCODING 61485
SWIDTH 548 0
DWIDTH 8 0
BBX 8 14 0 -3
BITMAP
00
00
60
50
50
38
0E
15
35
53
50
60
00
00
ENDCHAR
STARTCHAR char9193
ENCODING 61512
SWIDTH 548 0
DWIDTH 8 0
BBX 8 14 0 -3
BITMAP
00
00
00
E3
E7
EF
FF
FF
EF
E7
E3
00
00
00
ENDCHAR
STARTCHAR char9193
ENCODING 61514
SWIDTH 548 0
DWIDTH 8 0
BBX 8 14 0 -3
BITMAP
00
00
00
11
33
77
FF
FF
77
33
11
00
00
00
ENDCHAR
STARTCHAR char61515
ENCODING 61515
SWIDTH 548 0
DWIDTH 8 0
BBX 8 14 0 -3
BITMAP
00
00
00
30
38
3C
3E
3E
3C
38
30
00
00
00
ENDCHAR
STARTCHAR char61516
ENCODING 61516
SWIDTH 548 0
DWIDTH 8 0
BBX 8 14 0 -3
BITMAP
00
00
00
E7
E7
E7
E7
E7
E7
E7
E7
00
00
00
ENDCHAR
STARTCHAR char9193
ENCODING 61517
SWIDTH 548 0
DWIDTH 8 0
BBX 8 14 0 -3
BITMAP
00
00
00
FF
FF
FF
FF
FF
FF
FF
FF
00
00
00
ENDCHAR
STARTCHAR char9193
ENCODING 61518
SWIDTH 548 0
DWIDTH 8 0
BBX 8 14 0 -3
BITMAP
00
00
00
88
CC
EE
FF
FF
EE
CC
88
00
00
00
ENDCHAR
STARTCHAR char9193
ENCODING 61521
SWIDTH 548 0
DWIDTH 8 0
BBX 8 14 0 -3
BITMAP
00
00
00
C7
E7
F7
FF
FF
F7
E7
C7
00
00
00
ENDCHAR
STARTCHAR char9193
ENCODING 61522
SWIDTH 548 0
DWIDTH 8 0
BBX 8 14 0 -3
BITMAP
00
00
00
18
3C
7E
FF
00
00
FF
FF
00
00
00
ENDCHAR
STARTCHAR char61555
ENCODING 61555
SWIDTH 548 0
DWIDTH 8 0
BBX 8 14 0 -3
BITMAP
00
00
66
FF
FF
A5
A5
FF
A5
A5
FF
00
00
00
ENDCHAR
STARTCHAR char61556
ENCODING 61556
SWIDTH 548 0
DWIDTH 8 0
BBX 8 14 0 -3
BITMAP
00
0C
86
4F
7E
34
20
34
7E
4F
86
0C
00
00
ENDCHAR
STARTCHAR char61557
ENCODING 61557
SWIDTH 548 0
DWIDTH 8 0
BBX 8 14 0 -3
BITMAP
00
00
00
7E
FF
FF
FF
7E
1C
18
30
40
00
00
ENDCHAR
STARTCHAR char61603
ENCODING 61603
SWIDTH 548 0
DWIDTH 8 0
BBX 8 14 0 -3
BITMAP
00
00
00
9D
30
BE
A7
E5
7D
0C
B9
00
00
00
ENDCHAR
STARTCHAR char61724
ENCODING 61724
SWIDTH 548 0
DWIDTH 8 0
BBX 8 14 0 -3
BITMAP
00
00
00
BD
BD
00
DB
DB
00
3C
3C
00
00
00
ENDCHAR
STARTCHAR char61732
ENCODING 61732
SWIDTH 548 0
DWIDTH 8 0
BBX 8 14 0 -3
BITMAP
00
00
00
F0
E7
E8
94
28
57
44
45
00
00
00
ENDCHAR
STARTCHAR char61736
ENCODING 61736
SWIDTH 548 0
DWIDTH 8 0
BBX 8 14 0 -3
BITMAP
00
00
00
77
FF
99
33
66
44
00
44
44
00
00
ENDCHAR
STARTCHAR char61793
ENCODING 61792
SWIDTH 548 0
DWIDTH 8 0
BBX 8 14 0 -3
BITMAP
00
00
40
A2
40
0A
00
2A
00
AA
AA
00
00
00
ENDCHAR
STARTCHAR char61793
ENCODING 61793
SWIDTH 548 0
DWIDTH 8 0
BBX 8 14 0 -3
BITMAP
00
00
40
E2
42
0A
0A
2A
2A
AA
AA
00
00
00
ENDCHAR
STARTCHAR char61818
ENCODING 61818
SWIDTH 548 0
DWIDTH 8 0
BBX 8 14 0 -3
BITMAP
00
00
00
E7
E7
E7
00
00
E7
E7
E7
00
00
00
ENDCHAR
STARTCHAR char62234
ENCODING 61820
SWIDTH 548 0
DWIDTH 8 0
BBX 8 14 0 -3
BITMAP
00
00
18
2C
2C
3E
27
67
43
C2
BE
6C
00
00
ENDCHAR
STARTCHAR char61831
ENCODING 61831
SWIDTH 548 0
DWIDTH 8 0
BBX 8 14 0 -3
BITMAP
00
00
00
6F
DF
EF
DF
EF
DF
EE
00
00
00
00
ENDCHAR
STARTCHAR char62575
ENCODING 61832
SWIDTH 548 0
DWIDTH 8 0
BBX 8 14 0 -3
BITMAP
00
00
00
66
BD
7E
BD
BD
66
42
24
00
00
00
ENDCHAR
STARTCHAR char62578
ENCODING 61888
SWIDTH 548 0
DWIDTH 8 0
BBX 8 14 0 -3
BITMAP
00
00
3C
7E
FF
FF
7E
BD
42
BD
42
3C
00
00
ENDCHAR
STARTCHAR char61926
ENCODING 61926
SWIDTH 548 0
DWIDTH 8 0
BBX 8 14 0 -3
BITMAP
00
00
24
24
7E
7E
7E
7E
3C
18
10
12
0C
00
ENDCHAR
STARTCHAR char61930
ENCODING 61930
SWIDTH 548 0
DWIDTH 8 0
BBX 8 14 0 -3
BITMAP
00
00
00
7E
81
AD
A1
AD
A1
91
7E
00
00
00
ENDCHAR
STARTCHAR char61982
ENCODING 61982
SWIDTH 548 0
DWIDTH 8 0
BBX 8 14 0 -3
BITMAP
00
00
00
00
66
FF
D1
AF
6E
3C
18
00
00
00
ENDCHAR
STARTCHAR char62020
ENCODING 62016
SWIDTH 548 0
DWIDTH 8 0
BBX 8 14 0 -3
BITMAP
00
00
3C
FF
81
BD
BD
BD
BD
81
FF
00
00
00
ENDCHAR
STARTCHAR char62020
ENCODING 62017
SWIDTH 548 0
DWIDTH 8 0
BBX 8 14 0 -3
BITMAP
00
00
3C
FF
81
81
BD
BD
BD
81
FF
00
00
00
ENDCHAR
STARTCHAR char62020
ENCODING 62018
SWIDTH 548 0
DWIDTH 8 0
BBX 8 14 0 -3
BITMAP
00
00
3C
FF
81
81
81
BD
BD
81
FF
00
00
00
ENDCHAR
STARTCHAR char62020
ENCODING 62019
SWIDTH 548 0
DWIDTH 8 0
BBX 8 14 0 -3
BITMAP
00
00
3C
FF
81
81
81
81
BD
81
FF
00
00
00
ENDCHAR
STARTCHAR char62020
ENCODING 62020
SWIDTH 548 0
DWIDTH 8 0
BBX 8 14 0 -3
BITMAP
00
00
3C
FF
81
81
81
81
81
81
FF
00
00
00
ENDCHAR
STARTCHAR char61603
ENCODING 62085
SWIDTH 548 0
DWIDTH 8 0
BBX 8 14 0 -3
BITMAP
00
00
00
8B
98
3C
E6
67
3C
19
D1
00
00
00
ENDCHAR
STARTCHAR char62086
ENCODING 62086
SWIDTH 548 0
DWIDTH 8 0
BBX 8 14 0 -3
BITMAP
00
00
24
24
BD
A5
E7
FF
FF
E7
E7
00
00
00
ENDCHAR
STARTCHAR char62112
ENCODING 62112
SWIDTH 548 0
DWIDTH 8 0
BBX 8 14 0 -3
BITMAP
00
00
04
12
31
75
F5
F5
75
31
12
04
00
00
ENDCHAR
STARTCHAR char62151
ENCODING 62151
SWIDTH 548 0
DWIDTH 8 0
BBX 8 14 0 -3
BITMAP
00
00
20
07
4F
1F
7E
FC
F8
F8
70
00
00
00
ENDCHAR
STARTCHAR char62151
ENCODING 62152
SWIDTH 548 0
DWIDTH 8 0
BBX 8 14 0 -3
BITMAP
00
00
20
07
49
1D
7E
FC
F8
F8
70
00
00
00
ENDCHAR
STARTCHAR char62151
ENCODING 62153
SWIDTH 548 0
DWIDTH 8 0
BBX 8 14 0 -3
BITMAP
00
00
20
07
49
11
7A
FC
F8
F8
70
00
00
00
ENDCHAR
STARTCHAR char62151
ENCODING 62154
SWIDTH 548 0
DWIDTH 8 0
BBX 8 14 0 -3
BITMAP
00
00
20
07
49
11
62
E4
F8
F8
70
00
00
00
ENDCHAR
STARTCHAR char62151
ENCODING 62155
SWIDTH 548 0
DWIDTH 8 0
BBX 8 14 0 -3
BITMAP
00
00
20
07
49
11
62
84
88
C8
70
00
00
00
ENDCHAR
STARTCHAR char62160
ENCODING 62160
SWIDTH 548 0
DWIDTH 8 0
BBX 8 14 0 -3
BITMAP
00
00
00
FF
AF
FF
81
81
81
81
FF
00
00
00
ENDCHAR
STARTCHAR char62171
ENCODING 62170
SWIDTH 548 0
DWIDTH 8 0
BBX 8 14 0 -3
BITMAP
00
00
00
DB
81
3C
BD
BD
3C
81
DB
00
00
00
ENDCHAR
STARTCHAR char62171
ENCODING 62171
SWIDTH 548 0
DWIDTH 8 0
BBX 8 14 0 -3
BITMAP
00
00
00
DB
00
FF
FF
FF
FF
00
DB
00
00
00
ENDCHAR
STARTCHAR char62211
ENCODING 62211
SWIDTH 548 0
DWIDTH 8 0
BBX 8 14 0 -3
BITMAP
00
00
00
18
18
3C
3C
7E
66
E7
81
81
00
00
ENDCHAR
STARTCHAR char62214
ENCODING 62214
SWIDTH 548 0
DWIDTH 8 0
BBX 8 14 0 -3
BITMAP
00
00
3E
63
D9
BD
B5
A1
B3
9E
40
20
10
00
ENDCHAR
STARTCHAR char62234
ENCODING 62234
SWIDTH 548 0
DWIDTH 8 0
BBX 8 14 0 -3
BITMAP
00
00
18
2C
2C
3E
27
67
43
C2
BE
6C
00
00
ENDCHAR
STARTCHAR char62573
ENCODING 62573
SWIDTH 548 0
DWIDTH 8 0
BBX 8 14 0 -3
BITMAP
00
00
18
3C
7E
FF
7E
7E
66
66
66
00
00
00
ENDCHAR
STARTCHAR char62575
ENCODING 62575
SWIDTH 548 0
DWIDTH 8 0
BBX 8 14 0 -3
BITMAP
00
00
00
66
BD
7E
BD
BD
66
42
24
00
00
00
ENDCHAR
STARTCHAR char62578
ENCODING 62578
SWIDTH 548 0
DWIDTH 8 0
BBX 8 14 0 -3
BITMAP
00
3C
66
DB
DB
E7
7E
BD
42
BD
42
3C
00
00
ENDCHAR
STARTCHAR char62594
ENCODING 62594
SWIDTH 548 0
DWIDTH 8 0
BBX 8 14 0 -3
BITMAP
00
00
00
F0
88
9F
FB
81
FB
FF
00
00
00
00
ENDCHAR
ENDFONT
